<svg viewBox="0 0 597.253 157.467"><path style="fill:var(--md-typeset-color);" d="M1310.156 1181V23.554h19.995V1181h-19.995zm495.733-11.133c-69.22 0-124.412-25.556-165.572-76.626-41.16-51.09-61.743-118.764-61.743-202.998 0-81.574 19.72-150.293 59.15-206.191 39.42-55.9 93.74-83.848 162.95-83.848 105.3 0 172.901 60.405 202.851 181.201l-62.534 14.034c-22.73-91.4-68.956-137.11-138.706-137.11-44.9 0-80.992 20.245-108.252 60.733-27.26 40.489-40.869 94.277-40.869 161.367 0 73.219 13.283 130.076 39.873 170.566 26.59 40.49 64.076 60.733 112.456 60.733 65.47 0 109.971-43.563 133.491-130.694l64.541 12.832c-29.14 117.33-95.006 176.001-197.636 176.001zm372.934-11.22V611.425h353.965v60.146h-285.425v197.227h220.489v55.723h-220.489v173.98h277.823v60.146h-346.363zm540.103 0V611.425h68.54v258.97h220.898v55.327h-220.898V1098.5h266.587v60.147h-335.127zm507.231 0V611.425h68.54v547.222h-68.54zm295.547 0V611.425h64.146v236.924h156.782l100.898-236.924h71.836l-107.431 253.36c36.35 11.483 62.394 30.607 78.164 57.333 15.78 26.72 23.657 54.647 23.657 83.775 0 37.95-14.1 72.899-42.29 104.839-28.19 31.93-71.563 47.915-130.093 47.915h-215.669zm593.423 0V611.425h353.98v60.146h-285.44v197.227h220.488v55.723h-220.488v173.98h277.808v60.146h-346.348zm-3543.208-14.81C256.06 1143.837 0 887.777 0 571.918 0 256.055 256.06-.001 571.919-.001s571.904 256.056 571.904 571.919c0 315.859-256.045 571.919-571.904 571.919zm3013.93-45.337h151.524c29.93 0 54.73-8.023 74.37-24.053 19.65-16.04 29.473-38.489 29.473-67.339 0-28.875-9.301-53.262-27.861-73.168-18.58-19.912-46.72-29.869-84.39-29.869H3585.85v194.43zm-3013.93-5.727c287.66 0 520.84-233.199 520.84-520.855 0-287.66-233.18-520.854-520.84-520.854S51.064 284.258 51.064 571.918c0 287.656 233.195 520.855 520.855 520.855zM350.435 688.754c-28.403 0-51.036-10.486-67.91-31.436-16.887-20.957-25.328-48.703-25.328-83.261 0-33.461 8.09-61.66 24.258-84.58 16.168-22.934 38.439-34.395 66.84-34.395 43.184 0 70.927 24.783 83.204 74.326l-25.65 5.757c-9.312-37.488-28.288-56.235-56.894-56.235-18.422 0-33.216 8.307-44.4 24.917-11.183 16.605-16.772 38.658-16.772 66.181 0 30.035 5.449 53.356 16.363 69.961 10.903 16.61 26.269 24.917 46.113 24.917 26.863 0 45.126-17.856 54.77-53.598l26.47 5.258c-11.945 48.125-38.975 72.188-81.064 72.188zm161.103-3.325V460.97h28.11v106.216h90.601v22.69h-90.6v70.884h109.35v24.668h-137.46zm213.618-1.29V459.683h26.309v97.192h64.306l41.382-97.192h29.488l-44.077 103.93c14.91 4.707 25.596 12.557 32.065 23.526 6.469 10.957 9.712 22.408 9.712 34.365 0 15.567-5.8 29.888-17.359 42.993-11.57 13.098-29.356 19.644-53.364 19.644h-88.462zm26.309-24.653h62.153c12.277 0 22.454-3.29 30.513-9.873 8.055-6.574 12.085-15.787 12.085-27.627 0-11.836-3.824-21.85-11.44-30.014-7.614-8.164-19.143-12.246-34.6-12.246h-58.711v79.76zm3685.02-163.462-26.88-15.483 2.9-5.493 28.096 12.832-4.117 8.144zm-2827.544-27.48c-11.72 0-21.068-4.334-28.038-12.979-6.95-8.64-10.43-20.092-10.43-34.35 0-13.81 3.326-25.447 10.006-34.907 6.66-9.454 15.863-14.18 27.583-14.18 17.81 0 29.25 10.225 34.32 30.674l-10.575 2.373c-3.85-15.473-11.682-23.203-23.482-23.203-7.6 0-13.7 3.425-18.31 10.268-4.61 6.86-6.914 15.96-6.914 27.32 0 12.39 2.233 22.001 6.723 28.857 4.52 6.855 10.848 10.283 19.058 10.283 11.07 0 18.603-7.385 22.573-22.119l10.928 2.168c-4.94 19.851-16.082 29.795-33.443 29.795zm1788.998 0c-11.5 0-20.72-4.573-27.7-13.726-6.95-9.136-10.415-20.725-10.415-34.76 0-13.45 3.321-24.785 9.961-34.043 6.66-9.258 15.903-13.887 27.803-13.887 12.09 0 21.478 4.88 28.198 14.634 6.72 9.746 10.078 21.196 10.078 34.321 0 13.672-3.475 25-10.385 33.984-6.91 8.984-16.09 13.477-27.54 13.477zm723.501 0c-11.72 0-21.067-4.334-28.037-12.979-6.97-8.64-10.444-20.092-10.444-34.35 0-13.81 3.345-25.447 10.005-34.907 6.68-9.454 15.883-14.18 27.583-14.18 17.83 0 29.271 10.225 34.321 30.674l-10.576 2.373c-3.85-15.473-11.661-23.203-23.481-23.203-7.6 0-13.695 3.425-18.325 10.268-4.61 6.86-6.9 15.96-6.9 27.32 0 12.39 2.228 22.001 6.738 28.857 4.5 6.855 10.853 10.283 19.043 10.283 11.09 0 18.598-7.385 22.588-22.119l10.913 2.168c-4.92 19.851-16.068 29.795-33.428 29.795zm298.257 0c-11.49 0-20.7-4.573-27.67-13.726-6.97-9.136-10.46-20.725-10.46-34.76 0-13.45 3.316-24.785 9.976-34.043 6.64-9.258 15.932-13.887 27.832-13.887 12.07 0 21.45 4.88 28.17 14.634 6.72 9.746 10.092 21.196 10.092 34.321 0 13.672-3.461 25-10.371 33.984-6.94 8.984-16.129 13.477-27.569 13.477zm-2671.23-1.904v-92.608h59.927v10.166h-48.326v33.384h37.325v9.434h-37.325v29.443h47.036v10.18h-58.637zm167.827 0v-92.608h9.375v68.79c0 1.59-.065 3.525-.205 5.83l-.147 6.108 47.916-80.728h11.25v92.608h-9.156v-62.315c0-1.94.052-4.177.132-6.709l.146-6.445-44.78 75.469h-14.531zm172.852 0v-10.181h26.528v-82.427h11.601v82.427h26.602v10.18h-64.731zm169.35 0v-92.608h10.855v40.093h26.513l17.08-40.093h12.173l-18.193 42.876c6.16 1.946 10.567 5.178 13.227 9.697 2.67 4.524 4 9.25 4 14.18 0 6.426-2.379 12.341-7.149 17.74-4.78 5.402-12.117 8.115-22.017 8.115h-36.489zm176.821 0v-92.608h59.927v10.166h-48.325v33.384h37.324v9.434h-37.324v29.443h47.036v10.18h-58.638zm294.288 0v-92.608h34.878c10.9 0 19.907 4.49 26.997 13.462 7.1 8.977 10.664 19.998 10.664 33.076 0 12.891-3.653 23.796-10.943 32.71-7.26 8.911-17.457 13.36-30.527 13.36h-31.07zm181.596 0v-92.608h59.912v10.166h-48.31v33.384h37.324v9.434h-37.324v29.443h47.021v10.18h-58.623zm294.273 0v-92.608h11.601v43.828h37.383v9.36h-37.383v29.239h45.132v10.18h-56.733zm339.536 0v-92.608h10.854v40.093h26.529l17.065-40.093h12.173l-18.179 42.876c6.15 1.946 10.553 5.178 13.213 9.697 2.68 4.524 4 9.25 4 14.18 0 6.426-2.375 12.341-7.135 17.74-4.79 5.402-12.106 8.115-22.016 8.115h-36.504zm176.865 0v-92.608h9.814v80.86l30.396-80.86h7.866l30.059 80.86v-80.86h11.264v92.608h-16.948l-27.304-74.077-27.994 74.077h-17.153zm223.198 0-30.102-92.608h9.712l8.276 27.07h34.365l9.302-27.07h11.865l-30.307 92.608h-13.11zm315.894 0v-92.608h11.602v92.608h-11.602zm-863.174-7.603c7.82 0 14.108-3.327 18.838-9.975 4.73-6.653 7.09-15.963 7.09-27.92 0-11.63-2.286-21.135-6.856-28.506-4.57-7.387-10.889-11.074-18.999-11.074-7.87 0-14.162 3.564-18.852 10.693-4.7 7.14-7.075 16.381-7.075 27.744 0 11.633 2.352 21.035 7.002 28.242 4.66 7.195 10.942 10.796 18.852 10.796zm1021.772 0c7.83 0 14.094-3.327 18.824-9.975 4.73-6.653 7.09-15.963 7.09-27.92 0-11.63-2.286-21.135-6.856-28.506-4.57-7.387-10.894-11.074-18.984-11.074-7.87 0-14.157 3.564-18.867 10.693-4.7 7.14-7.046 16.381-7.046 27.744 0 11.633 2.327 21.035 6.987 28.242 4.65 7.195 10.943 10.796 18.852 10.796zm-1678.359-2.095h18.78c10.45 0 18.156-3.642 23.056-10.927 4.9-7.285 7.354-15.502 7.354-24.639 0-11.262-2.57-20.327-7.72-27.202-5.16-6.875-12.73-10.313-22.69-10.313h-18.78v73.081zm-471.855-.483h25.634c5.06 0 9.263-1.357 12.583-4.072 3.32-2.715 4.98-6.514 4.98-11.397s-1.551-9.02-4.701-12.392c-3.14-3.367-7.923-5.04-14.283-5.04h-24.213v32.901zm1286.513 0h25.65c5.06 0 9.263-1.357 12.583-4.072 3.32-2.715 4.98-6.514 4.98-11.397s-1.562-9.02-4.702-12.392c-3.15-3.367-7.912-5.04-14.282-5.04h-24.229v32.901zm394.659-2.168 14.326-44.517h-28.667l14.34 44.517zm-1133.687-125.01-26.91-15.483 2.916-5.479 28.08 12.818-4.086 8.144zm-753.252-27.48c-11.5 0-20.73-4.574-27.7-13.726-6.95-9.14-10.43-20.715-10.43-34.746 0-13.445 3.321-24.8 9.961-34.057 6.66-9.254 15.928-13.887 27.818-13.887 12.09 0 21.492 4.88 28.212 14.634 6.72 9.747 10.064 21.196 10.064 34.32 0 13.673-3.466 25.001-10.386 33.985-6.91 8.985-16.089 13.477-27.539 13.477zm463.184 0c-11.72 0-21.053-4.32-28.023-12.964-6.95-8.644-10.43-20.108-10.43-34.365 0-13.81 3.31-25.432 9.99-34.893 6.66-9.453 15.864-14.194 27.584-14.194 17.81 0 29.256 10.224 34.336 30.674l-10.591 2.373c-3.85-15.47-11.667-23.203-23.467-23.203-7.59 0-13.715 3.42-18.325 10.268-4.61 6.851-6.914 15.964-6.914 27.32 0 12.394 2.238 22.016 6.738 28.872 4.51 6.855 10.843 10.268 19.043 10.268 11.07 0 18.618-7.366 22.588-22.104l10.928 2.168c-4.95 19.85-16.097 29.78-33.457 29.78zm273.266 0c-11.48 0-20.705-4.574-27.685-13.726-6.97-9.14-10.445-20.715-10.445-34.746 0-13.445 3.33-24.8 9.99-34.057 6.64-9.254 15.903-13.887 27.803-13.887 12.07 0 21.464 4.88 28.184 14.634 6.72 9.747 10.078 21.196 10.078 34.32 0 13.673-3.461 25.001-10.371 33.985-6.94 8.985-16.104 13.477-27.554 13.477zm828.692 0c-11.72 0-21.057-4.32-28.037-12.964-6.95-8.644-10.43-20.108-10.43-34.365 0-13.81 3.325-25.432 10.005-34.893 6.66-9.453 15.863-14.194 27.583-14.194 17.81 0 29.256 10.224 34.336 30.674l-10.591 2.373c-3.85-15.47-11.677-23.203-23.467-23.203-7.6 0-13.725 3.42-18.325 10.268-4.61 6.851-6.914 15.964-6.914 27.32 0 12.394 2.248 22.016 6.738 28.872 4.51 6.855 10.843 10.268 19.043 10.268 11.08 0 18.613-7.366 22.573-22.104l10.943 2.168c-4.94 19.85-16.097 29.78-33.457 29.78zm480.424 0c-9.14 0-16.616-2.31-22.456-6.9-5.84-4.597-8.76-10.77-8.76-18.515 0-4.668 1.05-8.801 3.18-12.422 2.13-3.637 4.742-6.31 7.792-8.057 3.04-1.75 6.963-3.222 11.763-4.453l18.516-4.57c3.71-.911 6.97-2.564 9.8-4.966 2.84-2.41 4.248-5.591 4.248-9.536 0-5.227-1.857-9.378-5.567-12.495-3.71-3.106-9.223-4.658-16.553-4.658-14.02 0-23.134 6.308-27.334 18.925l-10.444-2.373c6.15-17.597 18.803-26.396 37.984-26.396 10.8 0 19.176 2.671 25.136 7.983 5.93 5.313 8.921 11.973 8.921 19.98 0 13.262-7.905 21.78-23.745 25.577l-17.315 4.072c-10.02 2.403-15.043 7.034-15.043 13.901 0 4.903 1.962 8.711 5.932 11.382 3.96 2.688 8.475 4.014 13.535 4.014 5.12 0 9.914-1.38 14.444-4.16 4.52-2.781 7.418-6.89 8.628-12.32l10.503 3.12c-5.28 15.239-16.344 22.867-33.164 22.867zm164.957 0c-11.5 0-20.716-4.574-27.686-13.726-6.96-9.14-10.43-20.715-10.43-34.746 0-13.445 3.321-24.8 9.961-34.057 6.66-9.254 15.913-13.887 27.803-13.887 12.09 0 21.478 4.88 28.198 14.634 6.72 9.747 10.093 21.196 10.093 34.32 0 13.673-3.48 25.001-10.4 33.985-6.91 8.985-16.09 13.477-27.54 13.477zm160.21 0c-9.12 0-16.622-2.31-22.442-6.9-5.84-4.597-8.774-10.77-8.774-18.515 0-4.668 1.063-8.801 3.193-12.422 2.13-3.637 4.71-6.31 7.75-8.057 3.07-1.75 7.011-3.222 11.791-4.453l18.53-4.57c3.71-.911 6.976-2.564 9.785-4.966 2.83-2.41 4.234-5.591 4.234-9.536 0-5.227-1.827-9.378-5.537-12.495-3.71-3.106-9.248-4.658-16.568-4.658-14.02 0-23.124 6.308-27.334 18.925l-10.459-2.373c6.15-17.597 18.838-26.396 37.998-26.396 10.82 0 19.183 2.671 25.123 7.983 5.96 5.313 8.935 11.973 8.935 19.98 0 13.262-7.905 21.78-23.745 25.577l-17.314 4.072c-10.04 2.403-15.044 7.034-15.044 13.901 0 4.903 1.978 8.711 5.918 11.382 3.97 2.688 8.49 4.014 13.55 4.014 5.11 0 9.933-1.38 14.443-4.16 4.53-2.781 7.398-6.89 8.628-12.32l10.517 3.12c-5.29 15.239-16.349 22.867-33.178 22.867zm-2858.013-1.904v-92.608h11.601v92.608h-11.601zm113.935 0v-92.608h9.36v68.79c0 1.593-.06 3.539-.19 5.844l-.146 6.094 47.9-80.728h11.265v92.608h-9.156v-62.315c0-1.94.032-4.178.132-6.709l.132-6.445-44.78 75.469h-14.517zm170.537 0v-92.608h9.36v68.79c0 1.593-.064 3.539-.204 5.844l-.132 6.094 47.886-80.728h11.279v92.608h-9.17v-62.315c0-1.94.032-4.178.132-6.709l.146-6.445-44.795 75.469h-14.502zm323.335 0 31.187-92.608h11.206l31.23 92.608h-10.107l-25.561-76.392-25.811 76.392h-12.144zm178.814 0-30.103-92.608h9.712l8.277 27.07h34.38l9.287-27.07h11.865l-30.293 92.608h-13.125zm290.874 0v-92.608h11.602v92.608h-11.602zm394.746 0v-92.608h11.602v92.608h-11.602zm227.871 0v-92.608h10.87v40.093h26.513l17.065-40.093h12.173l-18.193 42.876c6.16 1.941 10.582 5.178 13.242 9.697 2.67 4.524 3.999 9.246 3.999 14.18 0 6.426-2.378 12.352-7.148 17.754-4.78 5.398-12.117 8.1-22.017 8.1h-36.504zm164.356 0v-92.608h59.897v10.18h-48.296v33.37h37.31v9.433h-37.31v29.444h47.022v10.18h-58.623zm313.564 0v-60.484c0-11.812 2.56-20.439 7.72-25.869 5.16-5.437 13.113-8.16 23.833-8.16 9.63 0 17.424 2.634 23.364 7.911 5.96 5.269 8.92 13.982 8.92 26.118v60.484h-9.623v-60.499c0-8.37-1.857-14.443-5.567-18.193-3.71-3.758-9.139-5.64-16.289-5.64-3.71 0-7.259.704-10.649 2.11-3.4 1.402-5.928 3.57-7.588 6.518-1.68 2.942-2.534 8.006-2.534 15.205v60.499h-11.587zm164.81 0v-92.608h10.869v40.093h26.528l17.08-40.093h12.144l-18.179 42.876c6.15 1.941 10.562 5.178 13.242 9.697 2.66 4.524 4 9.246 4 14.18 0 6.426-2.384 12.352-7.164 17.754-4.77 5.398-12.107 8.1-22.017 8.1h-36.503zm-1855.694-7.603c7.81 0 14.093-3.323 18.823-9.976 4.72-6.648 7.09-15.952 7.09-27.905 0-11.629-2.285-21.15-6.855-28.52-4.57-7.383-10.9-11.075-19-11.075-7.87 0-14.162 3.565-18.852 10.694-4.71 7.136-7.075 16.377-7.075 27.744 0 11.629 2.352 21.05 7.002 28.257 4.67 7.195 10.957 10.781 18.867 10.781zm736.436 0c7.84 0 14.108-3.323 18.838-9.976 4.73-6.648 7.09-15.952 7.09-27.905 0-11.629-2.286-21.15-6.856-28.52-4.57-7.383-10.894-11.075-18.984-11.075-7.87 0-14.172 3.565-18.882 10.694-4.7 7.136-7.046 16.377-7.046 27.744 0 11.629 2.332 21.05 7.002 28.257 4.64 7.195 10.928 10.781 18.838 10.781zm1474.087 0c7.81 0 14.103-3.323 18.823-9.976 4.73-6.648 7.09-15.952 7.09-27.905 0-11.629-2.271-21.15-6.841-28.52-4.57-7.383-10.904-11.075-19.014-11.075-7.87 0-14.158 3.565-18.838 10.694-4.71 7.136-7.075 16.377-7.075 27.744 0 11.629 2.338 21.05 6.988 28.257 4.67 7.195 10.957 10.781 18.867 10.781zm-986.69-2.578h25.635c5.06 0 9.263-1.357 12.583-4.072 3.32-2.714 4.98-6.514 4.98-11.397 0-4.887-1.566-9.007-4.716-12.378-3.14-3.367-7.912-5.054-14.282-5.054h-24.2v32.9zm642.73 0h25.635c5.06 0 9.262-1.357 12.582-4.072 3.34-2.714 4.996-6.514 4.996-11.397 0-4.887-1.577-9.007-4.717-12.378-3.15-3.367-7.892-5.054-14.282-5.054h-24.214v32.9zm-1561.64-2.168 14.34-44.502h-28.682l14.341 44.502zm702.494-152.49c-11.48 0-20.705-4.563-27.685-13.711-6.97-9.141-10.445-20.73-10.445-34.761 0-13.45 3.33-24.8 9.99-34.058 6.64-9.25 15.918-13.886 27.818-13.886 12.07 0 21.449 4.89 28.169 14.648 6.72 9.742 10.078 21.186 10.078 34.307 0 13.668-3.461 25.01-10.371 33.999-6.94 8.98-16.104 13.462-27.554 13.462zm511.157 0c-9.14 0-16.63-2.295-22.47-6.885-5.84-4.602-8.745-10.78-8.745-18.53 0-4.668 1.058-8.801 3.178-12.422 2.13-3.63 4.729-6.307 7.779-8.057 3.05-1.738 6.967-3.223 11.777-4.453l18.516-4.556c3.71-.91 6.974-2.582 9.814-4.98 2.83-2.41 4.219-5.58 4.219-9.522 0-5.226-1.842-9.396-5.552-12.51-3.71-3.109-9.223-4.658-16.553-4.658-14.02 0-23.134 6.32-27.334 18.94l-10.459-2.387c6.15-17.59 18.818-26.396 37.998-26.396 10.8 0 19.177 2.67 25.137 7.983 5.93 5.32 8.921 11.973 8.921 19.98 0 13.262-7.905 21.79-23.745 25.591l-17.33 4.058c-10.02 2.41-15.043 7.03-15.043 13.901 0 4.9 1.977 8.702 5.947 11.382 3.96 2.68 8.475 4.028 13.535 4.028 5.12 0 9.918-1.393 14.458-4.174 4.51-2.782 7.389-6.886 8.599-12.32l10.518 3.135c-5.28 15.242-16.344 22.852-33.164 22.852zm173.6 0c-9.14 0-16.632-2.295-22.472-6.885-5.83-4.602-8.76-10.78-8.76-18.53 0-4.668 1.064-8.801 3.194-12.422 2.13-3.63 4.738-6.307 7.778-8.057 3.05-1.738 6.968-3.223 11.778-4.453l18.5-4.556c3.72-.91 6.985-2.582 9.815-4.98 2.83-2.41 4.248-5.58 4.248-9.522 0-5.226-1.87-9.396-5.58-12.51-3.71-3.109-9.219-4.658-16.539-4.658-14.02 0-23.149 6.32-27.349 18.94l-10.444-2.387c6.15-17.59 18.803-26.396 37.983-26.396 10.8 0 19.177 2.67 25.137 7.983 5.94 5.32 8.936 11.973 8.936 19.98 0 13.262-7.905 21.79-23.745 25.591l-17.33 4.058c-10.02 2.41-15.043 7.03-15.043 13.901 0 4.9 1.972 8.702 5.932 11.382 3.97 2.68 8.49 4.028 13.55 4.028 5.11 0 9.913-1.393 14.443-4.174 4.51-2.782 7.404-6.886 8.614-12.32l10.503 3.135c-5.27 15.242-16.34 22.852-33.15 22.852zm180.219 0c-11.48 0-20.691-4.563-27.671-13.711-6.97-9.141-10.444-20.73-10.444-34.761 0-13.45 3.315-24.8 9.975-34.058 6.64-9.25 15.918-13.886 27.818-13.886 12.07 0 21.463 4.89 28.183 14.648 6.72 9.742 10.078 21.186 10.078 34.307 0 13.668-3.46 25.01-10.37 33.999-6.93 8.98-16.12 13.462-27.57 13.462zm-2359.541-1.905V40.546h11.601v37.588h22.456c8.6 0 15.55 2.604 20.86 7.807 5.31 5.2 7.968 11.774 7.968 19.747 0 7.137-2.444 13.496-7.324 19.086-4.89 5.59-12.46 8.38-22.72 8.38h-32.841zm172.163 0V40.546h59.927v10.18h-48.326V84.11h37.325v9.434h-37.325v29.429h47.036v10.18h-58.637zm170.61 0V40.546h10.855v40.107h26.543l17.08-40.107h12.129l-18.18 42.89c6.15 1.942 10.573 5.178 13.243 9.698 2.66 4.52 4.014 9.25 4.014 14.18 0 6.42-2.398 12.336-7.178 17.739-4.77 5.398-12.102 8.1-22.002 8.1h-36.504zm327.818 0-30.103-92.607h9.697l8.291 27.07h34.366l9.301-27.07h11.85l-30.292 92.607h-13.11zm149.956 0V40.546h54.682v10.18h-42.817v82.427h-11.865zm291.753 0V40.546h11.601v37.588h22.47c8.59 0 15.54 2.604 20.86 7.807 5.31 5.2 7.954 11.774 7.954 19.747 0 7.137-2.444 13.496-7.324 19.086-4.88 5.59-12.455 8.38-22.705 8.38h-32.856zm172.163 0V40.546h10.869v40.107h26.528l17.08-40.107h12.144l-18.179 42.89c6.15 1.942 10.572 5.178 13.242 9.698 2.66 4.52 4.014 9.25 4.014 14.18 0 6.42-2.398 12.336-7.178 17.739-4.77 5.398-12.102 8.1-22.002 8.1h-36.518zm359.941 0V40.546h11.616v43.828h37.383v9.36h-37.383v29.239h45.103v10.18h-56.719zm165.059 0V40.546h59.897v10.18h-48.296V84.11h37.31v9.434h-37.31v29.429h47.022v10.18h-58.623zm699.917 0V40.546h10.869v40.107h26.543l17.08-40.107h12.143l-18.193 42.89c6.15 1.942 10.572 5.178 13.242 9.698 2.66 4.52 4.014 9.25 4.014 14.18 0 6.42-2.398 12.336-7.178 17.739-4.77 5.398-12.102 8.1-22.002 8.1h-36.518zm198.603 0-30.102-92.607h9.712l8.276 27.07h34.38l9.302-27.07h11.85l-30.293 92.607h-13.125zm130.357 0v-10.18h26.513V40.546h11.602v82.427h26.616v10.18h-64.731zm-1343.921-7.588c7.84 0 14.108-3.338 18.838-9.99 4.73-6.648 7.09-15.956 7.09-27.905 0-11.633-2.286-21.138-6.856-28.52-4.57-7.38-10.894-11.075-18.984-11.075-7.87 0-14.158 3.565-18.868 10.694-4.7 7.14-7.06 16.373-7.06 27.744 0 11.629 2.332 21.046 7.002 28.257 4.64 7.199 10.928 10.795 18.838 10.795zm864.99 0c7.84 0 14.103-3.338 18.823-9.99 4.73-6.648 7.09-15.956 7.09-27.905 0-11.633-2.27-21.138-6.84-28.52-4.57-7.38-10.91-11.075-19-11.075-7.87 0-14.157 3.565-18.867 10.694-4.7 7.14-7.046 16.373-7.046 27.744 0 11.629 2.332 21.046 7.002 28.257 4.64 7.199 10.928 10.795 18.838 10.795zm-2347.808-2.109h22.12c5.64 0 9.959-1.81 12.949-5.42 2.99-3.62 4.482-7.738 4.482-12.348 0-5.39-1.664-9.716-5.024-12.994-3.34-3.28-7.758-4.922-13.228-4.922h-21.299v35.684zm1112.3 0h22.12c5.65 0 9.969-1.81 12.948-5.42 2.99-3.62 4.483-7.738 4.483-12.348 0-5.39-1.65-9.716-5.01-12.994-3.34-3.28-7.772-4.922-13.242-4.922h-21.299v35.684zm-770.273-.483h25.65c5.06 0 9.252-1.347 12.582-4.058 3.33-2.71 4.995-6.51 4.995-11.396 0-4.883-1.591-9.022-4.731-12.393-3.15-3.367-7.892-5.054-14.282-5.054h-24.214v32.9zm941.704 0h25.65c5.05 0 9.248-1.347 12.568-4.058 3.34-2.71 4.995-6.51 4.995-11.396 0-4.883-1.577-9.022-4.717-12.393-3.15-3.367-7.892-5.054-14.282-5.054h-24.214v32.9zm1224.917 0h25.65c5.06 0 9.262-1.347 12.582-4.058 3.34-2.71 4.995-6.51 4.995-11.396 0-4.883-1.591-9.022-4.731-12.393-3.15-3.367-7.892-5.054-14.282-5.054h-24.214v32.9zm-1844.224-2.168 14.341-44.502h-28.667l14.326 44.502zm2037.407 0 14.341-44.502h-28.681l14.34 44.502z" transform="matrix(.13333 0 0 -.13333 0 157.467)"/></svg>
