<svg xmlns="http://www.w3.org/2000/svg" viewBox="0 0 230.148 108.051"><path d="M55.178 97.082h1.612v5.666q0 .979-.422 1.647-.422.662-1.149 1.001-.726.334-1.652.334-.937 0-1.67-.334-.732-.34-1.148-1.001-.416-.668-.416-1.647v-5.666h1.611v5.666q0 .598.2.979.198.375.562.556.363.182.861.182.504 0 .861-.182.364-.181.557-.556.193-.381.193-.979zm4.936 3.545v4.986h-1.547v-6.34h1.453zm-.247 1.588h-.457q.006-.692.188-1.254.182-.563.51-.967.334-.404.79-.621.458-.217 1.02-.217.457 0 .826.13.37.128.633.41.27.28.41.738.147.45.147 1.113v4.066h-1.559v-4.078q0-.433-.129-.685-.123-.252-.363-.358-.234-.105-.58-.105-.357 0-.627.146-.264.14-.445.393-.176.252-.27.58-.094.328-.094.709zm7.473-2.942v6.34h-1.553v-6.34zm-1.658-1.658q0-.345.234-.574.24-.228.644-.228.405 0 .64.228.24.229.24.574 0 .34-.24.569-.235.228-.64.228-.404 0-.644-.228-.234-.229-.234-.569zm5.638 6.826 1.476-5.168h1.618l-2.174 6.34h-.985zm-1.078-5.168 1.494 5.18.052 1.16h-.99l-2.18-6.34zm8.157 6.457q-.72 0-1.294-.234-.575-.234-.979-.65-.398-.422-.615-.979-.211-.562-.211-1.207v-.234q0-.733.21-1.33.212-.604.598-1.037.387-.434.926-.668.54-.235 1.19-.235.674 0 1.19.229.515.222.86.633.346.41.522.984.176.568.176 1.26v.65h-4.969v-1.066h3.445v-.117q-.011-.37-.14-.674-.13-.31-.399-.492-.27-.188-.697-.188-.346 0-.604.152-.251.147-.421.422-.164.27-.247.645-.082.375-.082.832v.234q0 .399.106.738.111.34.322.592.217.246.516.387.305.135.691.135.487 0 .88-.188.398-.193.69-.568l.78.808q-.2.293-.54.563-.333.27-.808.44-.474.163-1.096.163zm5.557-5.162v5.045h-1.547v-6.34h1.465zm1.927-1.336-.023 1.442q-.129-.024-.293-.035-.158-.012-.299-.012-.357 0-.627.1-.27.093-.45.275-.177.182-.27.445-.094.258-.106.586l-.334-.04q0-.604.123-1.12.123-.516.358-.902.234-.387.586-.598.357-.217.82-.217.129 0 .275.024.153.017.24.052zm4.73 4.647q0-.2-.105-.358-.105-.158-.398-.287-.287-.134-.844-.252-.492-.105-.908-.263-.416-.158-.715-.381-.299-.229-.469-.533-.164-.31-.164-.715 0-.393.17-.738.17-.352.492-.616.322-.27.785-.422.463-.158 1.043-.158.809 0 1.389.264.586.264.896.726.31.458.31 1.032h-1.546q0-.252-.117-.457-.111-.205-.346-.328-.234-.13-.592-.13-.322 0-.545.106-.216.106-.328.276-.111.17-.111.375 0 .152.059.275.064.117.205.217.14.1.38.181.247.082.604.159.709.14 1.236.375.534.228.832.609.3.38.3.973 0 .421-.182.773-.182.346-.528.604-.345.257-.826.404-.48.14-1.084.14-.873 0-1.476-.31-.604-.316-.915-.797-.31-.486-.31-1.008h1.482q.018.37.2.592.181.223.457.322.28.094.591.094.352 0 .592-.094.24-.1.363-.263.124-.17.124-.387zm4.725-4.606v6.34h-1.553v-6.34zm-1.658-1.658q0-.345.234-.574.24-.228.644-.228.405 0 .64.228.24.229.24.574 0 .34-.24.569-.235.228-.64.228-.404 0-.644-.228-.234-.229-.234-.569zm6.534 1.658v1.114h-3.633v-1.114zm-2.66-1.558h1.553v6.07q0 .281.076.434.076.152.229.205.152.053.363.053.152 0 .281-.018.129-.018.217-.035l.006 1.16q-.193.064-.44.105-.24.041-.544.041-.522 0-.915-.175-.392-.182-.609-.58-.217-.405-.217-1.067zm7.584 6.55v-2.923q0-.322-.112-.557-.11-.234-.34-.363-.228-.129-.58-.129-.31 0-.544.105-.229.106-.352.3-.123.187-.123.433h-1.553q0-.393.188-.744.187-.358.533-.633.351-.281.838-.44.492-.158 1.101-.158.721 0 1.284.246.568.24.89.727.328.486.328 1.225v2.765q0 .475.059.815.064.334.187.58v.1h-1.576q-.111-.241-.17-.61-.058-.375-.058-.738zm.217-2.513.011.92h-.978q-.364 0-.639.076-.275.07-.451.211-.176.135-.264.328-.088.188-.088.428 0 .234.106.422.111.187.316.299.211.105.492.105.41 0 .715-.164.305-.17.475-.41.17-.24.181-.457l.446.668q-.082.24-.246.51-.164.27-.422.503-.258.235-.621.387-.364.152-.844.152-.615 0-1.102-.246-.486-.246-.767-.673-.281-.428-.281-.973 0-.504.187-.89.188-.387.557-.651.369-.27.914-.404.55-.141 1.26-.141zm6.136-2.479v1.114h-3.633v-1.114zm-2.66-1.558h1.552v6.07q0 .281.077.434.076.152.228.205.153.053.363.053.153 0 .282-.018.129-.018.216-.035l.006 1.16q-.193.064-.439.105-.24.041-.545.041-.521 0-.914-.175-.393-.182-.61-.58-.216-.405-.216-1.067zm7.577 6.164q0-.2-.105-.358-.105-.158-.398-.287-.288-.134-.844-.252-.492-.105-.908-.263-.416-.158-.715-.381-.3-.229-.469-.533-.164-.31-.164-.715 0-.393.17-.738.17-.352.492-.616.322-.27.785-.422.463-.158 1.043-.158.809 0 1.389.264.586.264.896.726.31.458.31 1.032h-1.546q0-.252-.117-.457-.112-.205-.346-.328-.234-.13-.592-.13-.322 0-.545.106-.216.106-.328.276-.111.17-.111.375 0 .152.059.275.064.117.205.217.14.1.38.181.247.082.604.159.709.14 1.236.375.534.228.832.609.3.38.3.973 0 .421-.182.773-.182.346-.528.604-.346.257-.826.404-.48.14-1.084.14-.873 0-1.477-.31-.603-.316-.914-.797-.31-.486-.31-1.008h1.482q.018.37.2.592.181.223.457.322.28.094.591.094.352 0 .592-.094.24-.1.363-.263.123-.17.123-.387zm8.107-4.606v6.34h-1.553v-6.34zm-1.658-1.658q0-.345.234-.574.24-.228.645-.228.404 0 .638.228.24.229.24.574 0 .34-.24.569-.234.228-.638.228-.405 0-.645-.228-.234-.229-.234-.569zm13.942 3.516v.44q0 .966-.257 1.74-.258.767-.733 1.306-.474.54-1.13.826-.657.287-1.46.287-.79 0-1.453-.287-.656-.287-1.136-.826-.48-.539-.745-1.306-.263-.774-.263-1.74v-.44q0-.973.263-1.74.264-.768.739-1.307.474-.545 1.13-.832.663-.287 1.454-.287.802 0 1.459.287.656.287 1.13.832.481.54.739 1.307.263.767.263 1.74zm-1.628.44v-.452q0-.697-.13-1.224-.128-.534-.38-.897t-.621-.545q-.37-.187-.832-.187-.47 0-.832.187-.358.182-.61.545-.252.363-.386.897-.13.527-.13 1.224v.451q0 .692.13 1.225.134.533.386.902.258.364.621.551.364.188.832.188.47 0 .832-.188.364-.187.61-.55.252-.37.38-.903.13-.533.13-1.225zm5.878 2.94q.328 0 .586-.128.258-.13.41-.363.158-.235.17-.545h1.46q-.013.644-.364 1.154-.352.51-.938.809-.58.292-1.3.292-.733 0-1.278-.246t-.908-.685q-.357-.44-.54-1.02-.175-.58-.175-1.242v-.187q0-.663.176-1.243.182-.58.539-1.02.363-.439.908-.685.545-.246 1.272-.246.767 0 1.347.3.586.298.914.843.334.545.346 1.283h-1.459q-.012-.34-.152-.61-.14-.269-.399-.433-.258-.164-.627-.164-.392 0-.656.164-.258.164-.404.451-.14.281-.2.633-.052.346-.052.727v.187q0 .387.053.738.058.352.199.633.146.276.404.44.264.164.668.164zm7.83-.404v-4.834h1.558v6.34h-1.464zm.199-1.312.48-.012q0 .639-.14 1.178-.14.539-.44.937-.293.393-.744.616-.45.216-1.066.216-.469 0-.856-.128-.386-.135-.668-.416-.275-.288-.427-.733-.153-.451-.153-1.084v-4.096h1.547v4.108q0 .316.07.527.077.211.206.346.134.129.31.187.182.053.387.053.562 0 .885-.223.328-.228.468-.609.141-.387.141-.867zm4.671-2.303v7.559h-1.552v-8.778h1.435zm4.073 1.887v.123q0 .691-.164 1.283-.159.586-.47 1.026-.31.433-.773.68-.457.24-1.054.24-.586 0-1.02-.223-.433-.229-.732-.645-.299-.416-.48-.967-.176-.556-.264-1.212v-.393q.088-.697.263-1.266.182-.574.48-.99.3-.422.727-.65.434-.229 1.014-.229.604 0 1.06.229.464.228.78.656.316.428.475 1.02.158.591.158 1.318zm-1.553.123v-.123q0-.422-.076-.78-.076-.363-.235-.632-.158-.276-.41-.428-.252-.152-.61-.152-.357 0-.614.117-.258.117-.422.334-.164.217-.258.516-.088.292-.117.65v.973q.052.433.205.779.152.346.445.55.299.206.774.206.357 0 .609-.158.252-.159.41-.434.158-.281.229-.645.07-.363.07-.773zm6.576 1.764v-2.924q0-.322-.112-.557-.11-.234-.34-.363-.228-.129-.58-.129-.31 0-.544.105-.229.106-.352.3-.123.187-.123.433h-1.553q0-.393.188-.744.187-.358.533-.633.352-.281.838-.44.492-.158 1.101-.158.721 0 1.284.246.568.24.89.727.328.486.328 1.225v2.765q0 .475.059.815.064.334.187.58v.1h-1.576q-.111-.241-.17-.61-.058-.375-.058-.738zm.217-2.514.011.92h-.978q-.364 0-.639.076-.275.07-.451.211-.176.135-.264.328-.088.188-.088.428 0 .234.106.422.111.187.316.299.211.105.492.105.41 0 .715-.164.305-.17.475-.41.17-.24.181-.457l.446.668q-.082.24-.246.51-.164.27-.422.503-.258.235-.621.387-.364.152-.844.152-.615 0-1.102-.246-.486-.246-.767-.673-.281-.428-.281-.973 0-.504.187-.89.188-.387.557-.651.369-.27.914-.404.55-.141 1.26-.141zm5.737 2.76q.329 0 .586-.13.258-.128.41-.362.159-.235.17-.545h1.46q-.012.644-.364 1.154-.351.51-.937.808-.58.293-1.301.293-.733 0-1.277-.246-.545-.246-.909-.685-.357-.44-.539-1.02-.175-.58-.175-1.242v-.187q0-.663.175-1.243.182-.58.54-1.02.363-.439.908-.685.544-.246 1.271-.246.768 0 1.348.3.586.298.914.843.334.545.345 1.283h-1.459q-.011-.34-.152-.61-.14-.269-.398-.433-.258-.164-.627-.164-.393 0-.656.164-.258.164-.405.451-.14.281-.199.633-.053.346-.053.727v.187q0 .387.053.738.059.352.2.633.146.276.404.44.263.164.667.164zm5.697-5.239v6.34h-1.552v-6.34zm-1.658-1.658q0-.345.235-.574.24-.228.644-.228t.639.228q.24.229.24.574 0 .34-.24.569-.235.228-.639.228t-.644-.228q-.235-.229-.235-.569zm3.26 4.893v-.123q0-.697.199-1.283.199-.592.58-1.026.38-.433.931-.674.551-.246 1.254-.246.715 0 1.266.246.557.24.937.674.381.434.58 1.026.2.585.2 1.283v.123q0 .691-.2 1.283-.199.586-.58 1.025-.38.434-.931.674-.55.24-1.26.24-.703 0-1.26-.24-.556-.24-.937-.674-.381-.439-.58-1.025-.2-.592-.2-1.283zm1.546-.123v.123q0 .416.082.78.082.362.252.638.17.275.44.433.275.153.656.153.375 0 .645-.153.27-.158.439-.433.176-.276.258-.639.082-.363.082-.78v-.122q0-.41-.082-.768-.082-.363-.258-.638-.17-.282-.445-.44-.27-.164-.65-.164-.376 0-.645.164-.27.158-.44.44-.17.275-.252.638-.082.358-.082.768zm.65-3.99 1.15-1.782h1.71l-1.6 1.782zM55.424 87.207h1.612q-.065.855-.475 1.517-.41.656-1.142 1.031-.733.375-1.776.375-.803 0-1.447-.28-.639-.288-1.096-.815-.45-.533-.691-1.278-.24-.75-.24-1.681v-.65q0-.932.246-1.682.246-.75.703-1.278.463-.533 1.107-.82.65-.287 1.453-.287 1.043 0 1.764.387.72.38 1.12 1.049.398.667.48 1.535H55.43q-.047-.54-.234-.914-.182-.375-.55-.569-.364-.199-.968-.199-.468 0-.826.176-.351.176-.586.527-.234.346-.351.867-.117.516-.117 1.196v.662q0 .65.105 1.166.105.515.328.873.223.357.574.545.352.187.838.187.592 0 .961-.187.375-.188.569-.551.199-.363.251-.902zm2.861-.3v-.122q0-.697.2-1.283.199-.592.58-1.026.38-.433.931-.674.551-.246 1.254-.246.715 0 1.266.246.557.24.937.674.381.434.58 1.026.2.585.2 1.283v.123q0 .691-.2 1.283-.199.586-.58 1.025-.38.434-.931.674-.551.24-1.26.24-.703 0-1.26-.24-.556-.24-.937-.674-.381-.439-.58-1.025-.2-.592-.2-1.283zm1.547-.122v.123q0 .416.082.78.082.362.252.638.17.275.44.433.275.153.656.153.375 0 .644-.153.27-.158.44-.433.176-.276.258-.639.082-.363.082-.78v-.122q0-.41-.082-.768-.082-.363-.258-.638-.17-.282-.445-.44-.27-.164-.65-.164-.376 0-.645.164-.27.158-.44.44-.17.275-.252.638-.082.358-.082.768zm7.437-1.758v4.986h-1.546v-6.34h1.453zm-.246 1.588h-.457q.006-.692.188-1.254.181-.563.51-.967.334-.404.79-.62.458-.218 1.02-.218.457 0 .826.13.37.128.633.41.27.28.41.738.147.45.147 1.113v4.066h-1.56v-4.078q0-.433-.129-.685-.123-.252-.363-.358-.234-.105-.58-.105-.358 0-.627.146-.264.14-.445.393-.176.252-.27.58-.094.328-.094.709zm9.318 1.664q0-.2-.105-.358-.106-.158-.399-.287-.287-.134-.843-.252-.493-.105-.909-.263-.416-.158-.714-.381-.3-.229-.47-.533-.163-.31-.163-.715 0-.393.17-.738.17-.352.492-.616.322-.27.785-.422.463-.158 1.043-.158.809 0 1.389.264.586.264.896.726.31.458.31 1.032h-1.546q0-.252-.117-.457-.112-.205-.346-.328-.234-.13-.592-.13-.322 0-.545.106-.217.106-.328.276-.111.17-.111.375 0 .152.058.275.065.117.205.217.141.1.381.181.246.082.604.159.709.14 1.236.375.533.228.832.609.299.38.299.973 0 .421-.182.773-.181.346-.527.604-.346.257-.826.404-.48.14-1.084.14-.873 0-1.477-.31-.603-.316-.914-.797-.31-.486-.31-1.008h1.482q.018.37.2.592.181.223.456.322.282.094.592.094.352 0 .592-.094.24-.1.363-.263.123-.17.123-.387zm5.932 1.851q-.721 0-1.295-.234-.575-.234-.979-.65-.398-.422-.615-.979-.211-.562-.211-1.207v-.234q0-.733.21-1.33.212-.604.598-1.037.387-.434.926-.668.54-.235 1.19-.235.674 0 1.19.229.515.222.86.633.346.41.522.984.176.568.176 1.26v.65h-4.969v-1.066h3.445v-.117q-.011-.37-.14-.674-.13-.31-.399-.493-.27-.187-.697-.187-.346 0-.604.152-.251.147-.421.422-.164.27-.246.645-.082.375-.082.832v.234q0 .399.105.738.111.34.322.592.217.246.516.387.305.135.691.135.487 0 .88-.188.398-.193.69-.568l.78.808q-.2.293-.54.563-.333.27-.808.44-.474.163-1.095.163zm5.65-9.117v9H86.37v-9zm3.517 0v9h-1.553v-9zm4.724 9.117q-.72 0-1.295-.234-.574-.234-.979-.65-.398-.422-.615-.979-.21-.562-.21-1.207v-.234q0-.733.21-1.33.211-.604.598-1.037.387-.434.926-.668.539-.235 1.19-.235.673 0 1.189.229.515.222.86.633.347.41.522.984.176.568.176 1.26v.65h-4.969v-1.066h3.446v-.117q-.012-.37-.14-.674-.13-.31-.4-.493-.269-.187-.697-.187-.345 0-.603.152-.252.147-.422.422-.164.27-.246.645-.082.375-.082.832v.234q0 .399.105.738.112.34.323.592.216.246.515.387.305.135.692.135.486 0 .879-.188.398-.193.691-.568l.78.808q-.2.293-.54.563-.334.27-.808.44-.475.163-1.096.163zm5.556-5.162v5.045h-1.547v-6.34h1.465zm1.928-1.336-.024 1.442q-.128-.024-.292-.035-.159-.012-.3-.012-.357 0-.626.1-.27.093-.451.275-.176.182-.27.445-.094.258-.105.586l-.334-.04q0-.604.123-1.12.123-.516.357-.902.234-.387.586-.598.357-.217.82-.217.13 0 .276.024.152.017.24.052zm2.884.041v6.34h-1.552v-6.34zm-1.658-1.658q0-.345.234-.574.24-.229.645-.229.404 0 .639.229.24.229.24.574 0 .34-.24.569-.235.228-.639.228t-.645-.228q-.234-.229-.234-.569zm7.027 6.65v-2.923q0-.322-.111-.557-.112-.234-.34-.363-.229-.129-.58-.129-.31 0-.545.105-.229.106-.352.3-.123.187-.123.433h-1.552q0-.393.187-.744.188-.358.533-.633.352-.281.838-.44.492-.158 1.102-.158.72 0 1.283.246.568.24.89.727.329.486.329 1.224v2.766q0 .475.058.815.065.334.188.58v.1h-1.576q-.112-.241-.17-.61-.059-.375-.059-.738zm.217-2.513.012.92h-.979q-.363 0-.639.076-.275.07-.45.211-.177.135-.265.328-.087.188-.087.428 0 .234.105.422.111.187.316.299.211.105.493.105.41 0 .714-.164.305-.17.475-.41.17-.24.182-.457l.445.668q-.082.24-.246.51-.164.269-.422.503-.258.235-.621.387-.363.152-.844.152-.615 0-1.101-.246-.487-.246-.768-.673-.281-.428-.281-.973 0-.504.187-.89.188-.387.557-.651.37-.27.914-.404.55-.141 1.26-.141zm10.321 2.514v-7.653h1.559v9h-1.406zm-4.072-1.746v-.124q0-.726.164-1.318.17-.598.492-1.025.323-.428.78-.662.462-.235 1.048-.235.569 0 .99.229.428.228.727.65.305.422.487 1.002.181.574.263 1.266v.334q-.082.674-.263 1.236-.182.563-.487.984-.299.416-.726.645-.428.228-1.002.228-.58 0-1.043-.24-.457-.24-.78-.674-.316-.433-.486-1.02-.164-.585-.164-1.276zm1.553-.124v.124q0 .41.07.767.07.358.229.633.158.27.404.422.252.152.61.152.456 0 .75-.2.298-.204.462-.556.164-.357.211-.802v-.92q-.023-.352-.123-.65-.094-.3-.27-.516-.17-.217-.421-.34-.252-.123-.598-.123-.357 0-.61.158-.251.152-.41.428-.158.275-.234.638-.07.364-.07.785zm6.757-5.783v.803l-.164 2.297h-.99v-3.1zm7.256 7.735v1.265h-4.535v-1.265zm-4.043-7.266v8.531h-1.612v-8.531zm3.45 3.522v1.236h-3.942v-1.236zm.575-3.522v1.272h-4.517v-1.272zm5.105 7.184v-7.653h1.559v9h-1.406zm-4.072-1.746v-.124q0-.726.164-1.318.17-.598.492-1.025.322-.428.78-.662.462-.235 1.048-.235.569 0 .99.229.428.228.727.65.305.422.486 1.002.182.574.264 1.266v.334q-.082.674-.264 1.236-.181.563-.486.984-.299.416-.726.645-.428.228-1.002.228-.58 0-1.043-.24-.457-.24-.78-.674-.316-.433-.486-1.02-.164-.585-.164-1.276zm1.553-.124v.124q0 .41.07.767.07.358.228.633.159.27.405.422.252.152.61.152.456 0 .75-.2.298-.204.462-.556.164-.357.21-.802v-.92q-.022-.352-.122-.65-.094-.3-.27-.516-.17-.217-.421-.34-.252-.123-.598-.123-.358 0-.61.158-.251.152-.41.428-.158.275-.234.638-.07.364-.07.785zm9.646 1.711v-4.834h1.558v6.34h-1.465zm.199-1.312.48-.012q0 .639-.14 1.178-.14.539-.44.937-.293.393-.744.616-.451.216-1.066.216-.469 0-.856-.128-.386-.135-.668-.416-.275-.288-.427-.733-.153-.451-.153-1.084v-4.096h1.547v4.108q0 .316.07.527.077.211.206.346.134.129.31.187.182.053.387.053.562 0 .885-.223.328-.228.468-.609.14-.387.14-.867zm5.726 1.717q.328 0 .586-.13.258-.128.41-.362.158-.235.17-.545h1.46q-.013.644-.364 1.154-.352.51-.938.808-.58.293-1.3.293-.733 0-1.278-.246t-.908-.685q-.357-.44-.539-1.02-.176-.58-.176-1.242v-.187q0-.663.176-1.243.182-.58.539-1.02.363-.439.908-.685.545-.246 1.272-.246.767 0 1.347.3.586.298.914.843.334.545.346 1.283h-1.459q-.012-.34-.152-.61-.14-.269-.399-.433-.257-.164-.627-.164-.392 0-.656.164-.258.164-.404.451-.14.281-.2.633-.052.346-.052.727v.187q0 .387.053.738.058.352.199.633.146.276.404.44.264.164.668.164zm7.549-.246v-2.924q0-.322-.112-.557-.111-.234-.34-.363-.228-.129-.58-.129-.31 0-.545.105-.228.106-.351.3-.123.187-.123.433h-1.553q0-.393.188-.744.187-.358.533-.633.351-.281.838-.44.492-.158 1.101-.158.72 0 1.283.246.569.24.891.727.328.486.328 1.225v2.765q0 .475.059.815.064.334.187.58v.1h-1.576q-.111-.241-.17-.61-.058-.375-.058-.738zm.216-2.514.012.92h-.978q-.364 0-.64.076-.275.07-.45.211-.176.135-.264.328-.088.188-.088.428 0 .234.106.422.11.187.316.299.21.105.492.105.41 0 .715-.164.305-.17.475-.41.17-.24.181-.457l.446.668q-.082.24-.247.51-.164.269-.421.503-.258.235-.621.387-.364.152-.844.152-.615 0-1.102-.246-.486-.246-.767-.673-.282-.428-.282-.973 0-.504.188-.89.187-.387.557-.651.369-.27.914-.404.55-.141 1.26-.141zm5.738 2.76q.328 0 .586-.13.258-.128.41-.362.159-.235.17-.545h1.46q-.012.644-.364 1.154-.352.51-.938.808-.58.293-1.3.293-.733 0-1.278-.246t-.908-.685q-.357-.44-.539-1.02-.176-.58-.176-1.242v-.187q0-.663.176-1.243.182-.58.54-1.02.362-.439.907-.685.545-.246 1.272-.246.767 0 1.347.3.586.298.915.843.334.545.345 1.283h-1.459q-.011-.34-.152-.61-.14-.269-.399-.433-.257-.164-.626-.164-.393 0-.657.164-.258.164-.404.451-.14.281-.2.633-.052.346-.052.727v.187q0 .387.053.738.058.352.199.633.146.276.404.44.264.164.668.164zm5.697-5.239v6.34h-1.553v-6.34zm-1.658-1.658q0-.345.234-.574.24-.229.645-.229.404 0 .638.229.24.229.24.574 0 .34-.24.569-.234.228-.638.228t-.645-.228q-.234-.229-.234-.569zm3.26 4.893v-.123q0-.698.199-1.283.199-.592.58-1.026.38-.433.931-.674.551-.246 1.254-.246.715 0 1.266.246.556.24.937.674.381.434.58 1.026.2.585.2 1.283v.123q0 .691-.2 1.283-.199.586-.58 1.025-.38.434-.931.674-.551.24-1.26.24-.703 0-1.26-.24t-.937-.674q-.381-.44-.58-1.025-.2-.592-.2-1.283zm1.546-.123v.123q0 .416.082.78.082.362.252.638.17.275.44.433.275.153.656.153.375 0 .644-.153.27-.158.44-.433.176-.276.258-.639.082-.363.082-.78v-.122q0-.41-.082-.768-.082-.363-.258-.638-.17-.282-.445-.44-.27-.164-.65-.164-.376 0-.645.164-.27.158-.44.44-.17.275-.252.638-.082.358-.082.768zm.65-3.99 1.149-1.782h1.71l-1.599 1.782zm6.729 5.824-.012 1.072q0 .627-.31 1.271-.311.645-.803 1.067l-.82-.451q.158-.264.292-.533.141-.27.223-.586.088-.311.088-.698v-1.142zm10.25-1.412h1.612q-.064.855-.474 1.517-.41.656-1.143 1.031-.732.375-1.775.375-.803 0-1.448-.28-.638-.288-1.095-.815-.452-.533-.692-1.278-.24-.75-.24-1.681v-.65q0-.932.246-1.682.246-.75.703-1.278.463-.533 1.108-.82.65-.287 1.453-.287 1.043 0 1.763.387.721.38 1.12 1.049.398.667.48 1.535h-1.611q-.047-.54-.235-.914-.181-.375-.55-.569-.364-.199-.967-.199-.469 0-.826.176-.352.176-.586.527-.235.346-.352.867-.117.516-.117 1.196v.662q0 .65.105 1.166.106.515.329.873.222.357.574.545.351.187.838.187.591 0 .96-.187.376-.188.569-.551.2-.363.252-.902zm6.91 1.3v-4.834h1.56v6.34h-1.466zm.2-1.312.48-.012q0 .639-.14 1.178-.14.539-.44.937-.293.393-.744.616-.451.216-1.066.216-.47 0-.856-.128-.386-.135-.668-.416-.275-.288-.427-.733-.153-.451-.153-1.084v-4.096h1.547v4.108q0 .316.07.527.077.211.205.346.135.129.311.187.182.053.387.053.562 0 .884-.223.329-.228.47-.609.14-.387.14-.867zm4.765-6.182v9h-1.553v-9zm4.877 2.66v1.114h-3.633v-1.114zm-2.66-1.558h1.552v6.07q0 .281.076.434.077.152.229.205.152.053.363.053.153 0 .281-.018.13-.018.217-.035l.006 1.16q-.193.064-.44.105-.24.041-.544.041-.522 0-.914-.175-.393-.182-.61-.58-.216-.405-.216-1.067zm7.864 6.392v-4.834h1.559v6.34h-1.465zm.2-1.312.48-.012q0 .639-.14 1.178-.141.539-.44.937-.293.393-.744.616-.451.216-1.067.216-.468 0-.855-.128-.387-.135-.668-.416-.275-.288-.428-.733-.152-.451-.152-1.084v-4.096h1.547v4.108q0 .316.07.527.076.211.205.346.135.129.31.187.182.053.387.053.563 0 .885-.223.328-.228.469-.609.14-.387.14-.867zm4.671-2.227v5.045h-1.547v-6.34h1.465zm1.928-1.336-.024 1.442q-.129-.024-.293-.035-.158-.012-.298-.012-.358 0-.627.1-.27.093-.452.275-.175.182-.27.445-.093.258-.105.586l-.334-.04q0-.604.124-1.12.123-.516.357-.902.234-.387.586-.598.357-.217.82-.217.13 0 .276.024.152.017.24.052zm4.532 5.034v-2.924q0-.322-.111-.557-.112-.234-.34-.363-.229-.129-.58-.129-.31 0-.545.105-.229.106-.352.3-.123.187-.123.433h-1.553q0-.393.188-.744.187-.358.533-.633.352-.281.838-.44.492-.158 1.102-.158.72 0 1.283.246.568.24.89.727.329.486.329 1.225v2.765q0 .475.058.815.065.334.188.58v.1h-1.577q-.11-.241-.17-.61-.058-.375-.058-.738zm.217-2.514.011.92h-.978q-.363 0-.639.076-.275.07-.45.211-.177.135-.265.328-.087.188-.087.428 0 .234.105.422.111.187.316.299.211.105.493.105.41 0 .714-.164.305-.17.475-.41.17-.24.182-.457l.445.668q-.082.24-.246.51-.164.269-.422.503-.258.235-.621.387-.363.152-.844.152-.615 0-1.101-.246-.487-.246-.768-.673-.281-.428-.281-.973 0-.504.187-.89.188-.387.557-.651.37-.27.914-.404.55-.141 1.26-.141zm4.595 2.467-.012 1.072q0 .627-.31 1.271-.31.645-.803 1.067l-.82-.451q.158-.264.293-.533.14-.27.222-.586.088-.311.088-.698v-1.142ZM13.63 4.71a.86.86 0 1 0 0 1.71.85.85 0 0 0 .85-.85.86.86 0 0 0-.85-.86zM0 74.36l8.95 8.94a26.55 26.55 0 0 0 13.1 7.19L2.96 71.4Zm4.92-52.21 2.79 6.77-3.49 7.06a44 44 0 0 1 3.48 10c.82 4.56.16 11.63.16 11.63l13-6.56a14.28 14.28 0 0 0 2.06 2.62l2.94 2.93 10.12-10.11-.67-.63c-4.07-3.81-5.81-7.41-5.81-12v-4.93l2.78-6.74a1.33 1.33 0 1 0-1.79-1.24 1.34 1.34 0 0 0 .32.86 3.76 3.76 0 0 1-2.53 2.36 6.4 6.4 0 0 1 3.74-8.25 6.35 6.35 0 0 1 .7-8.63 7.8 7.8 0 0 0-5.59 1 5.73 5.73 0 0 1-2.28-4.58 5.58 5.58 0 0 1 .13-1.23A5.28 5.28 0 0 1 18.23 0a4.53 4.53 0 0 1-7.63 0c.34 3.75-.79 8.16-4 10.5l.87 1.16a13.4 13.4 0 0 0 1.5-1.31.85.85 0 0 1 .67-.32.76.76 0 0 1 .74.76 1 1 0 0 1-.14.48 3.28 3.28 0 0 0-.35 1.47 3.4 3.4 0 0 0 .32 1.43l1.31-.62c-.61-1.31.43-2.53 2.09-3.76 1.18-.88 2.43-1.7 3.34-1.71a1.85 1.85 0 0 1 1.85 1.85c0 1.14-1.13 2.05-2 2.6-3.27 2.06-6.56 3.56-8.08 7.18a13.23 13.23 0 0 0-.91 4 4.08 4.08 0 0 1-1.48-1.87 1.34 1.34 0 0 0 .32-.86 1.33 1.33 0 1 0-1.79 1.24zm9.36 30.42-4.65 2.32a46.06 46.06 0 0 0-.37-9.21 42.6 42.6 0 0 0-2.9-8.9h7.9zm1.61-.81V35.17H6.42l2.94-6h8.74v4.62c0 1.38 0 4.26.22 7.32a23.26 23.26 0 0 0 1.83 8.48zm17.83-5.25L25.9 54.3l-1.8-1.79c-3.05-3-3.87-6.79-4.18-11.47-.14-2.17-.2-4.53-.2-7.22V29.2h8.21v4.62c0 4.89 1.79 8.74 5.79 12.69zM10.1 20.37c1.48-3.78 6.26-5.66 8.46-7.22a4.26 4.26 0 0 0 1.81-3.26 3.39 3.39 0 0 0-3.36-3.36c-1.73 0-4.24 1.95-5.43 3.13a2.31 2.31 0 0 0-1.26-1 15 15 0 0 0 1.77-5.6 6 6 0 0 0 6-.79 6.77 6.77 0 0 0 4.86 2.05h.43a7.23 7.23 0 0 0 2.48 4.81 10.81 10.81 0 0 0-2.15 2.39 10.89 10.89 0 0 1-3.91 3.66 5.61 5.61 0 0 1-1.77.61 7.83 7.83 0 0 1-.35 4.43l1.39.54a9.16 9.16 0 0 0 .63-3.36v-.41a11.79 11.79 0 0 0 5.35-4.56 8 8 0 0 1 4.74-3.55 7.9 7.9 0 0 0 .12 6.43 7.88 7.88 0 0 0-3.17 8.93 3.72 3.72 0 0 1-2.89-2.34 1.29 1.29 0 0 0 .43-1 1.33 1.33 0 1 0-2.23 1 3.71 3.71 0 0 1-6.92 0 1.33 1.33 0 1 0-2.23-1 1.29 1.29 0 0 0 .43 1 3.7 3.7 0 0 1-3.46 2.38 4.07 4.07 0 0 1-.52 0 11.56 11.56 0 0 1 .75-3.91zm-.2 5.39a5.21 5.21 0 0 0 4.36-2.36 5.21 5.21 0 0 0 8.72 0 5.21 5.21 0 0 0 6.41 1.94l-.93 2.25H8.78l-.93-2.25a5.18 5.18 0 0 0 2.05.42ZM5.63 68.78l22.38 22.37a28 28 0 0 0 5.39-.52L8.59 65.82Zm5.54-5.59L35.98 88a27.19 27.19 0 0 0 .51-5.39L14.12 60.24Zm5.58-5.58 19.09 19.1a26.62 26.62 0 0 0-7.19-13.1l-9-8.95zM6.96 15.43c1.63-2.4 1.9-2.45 1.9-2.45a2.28 2.28 0 0 0-2.5.94c-1.61 2.39-1.88 2.44-1.88 2.44a2.27 2.27 0 0 0 2.48-.93zm16.09 19.74h-1.9v1.61h1.9v1.9h.55v2.46h.5v-2.46h.56v-1.9h1.9v-1.61h-1.9v-1.89h-1.61Zm61.32 33.17h10.85V65.9H87V49.71h-2.63zm24.93-8.99h-8.02v-7.19h8.98v-2.45h-11.6v18.63h11.97V65.9h-9.35v-4.14h8.02zm46.2-9.64h2.65v18.63h-2.65zm-40.37-.24v18.87h2.52V55.11l11.85 13.48h.83V49.71h-2.52v13.23l-11.85-13.47Zm91.85 0-7.81 18.87h2.71l1.53-3.79h8l1.53 3.79h2.69l-7.81-18.87zm-2.58 12.64 3-7.31 3 7.31zm-35.32-12.64-7.8 18.87h2.7l1.54-3.79h7.95l1.54 3.79h2.7l-7.8-18.87zm-2.57 12.64 3-7.31 3 7.31zM52.52 49.71h-2.83l7.8 18.88h.83l7.8-18.88h-2.83L57.9 63.1Zm20.11-.24-7.8 18.87h2.7l1.54-3.79h7.95l1.54 3.79h2.7l-7.8-18.87zm-2.57 12.64 3-7.31 3 7.31zm73.57 3.97a7.06 7.06 0 0 1-.13-14.11 6.45 6.45 0 0 1 5.58 2.89l2-1.48a8.85 8.85 0 0 0-7.61-3.87 9.52 9.52 0 1 0 8.16 14.93l-2.09-1.47a6.9 6.9 0 0 1-5.91 3.11zm37.21-16.61v18.87h2.52V55.11l11.86 13.48h.82V49.71h-2.52v13.23l-11.85-13.47Zm-48.98-14a6.07 6.07 0 0 0 3.89-6c0-4.24-2.91-6.77-7.78-6.77h-4.93v18.63h2.59v-5.12h2.3a11.12 11.12 0 0 0 1.23-.06l3.49 5.21h3.19zm-4-1.67h-2.23v-8.63h2.2c3.48 0 5.18 1.42 5.18 4.33s-1.66 4.3-5.14 4.3zm83.4-8.63v16.19h2.63V25.17h5.67v-2.44h-13.79v2.44zm-50.89-2.44h-2.63v18.63h10.85v-2.44h-8.22zM109.2 34.78h8.01v-2.41h-8.01v-7.19h8.98v-2.45h-11.61v18.63h11.97v-2.44h-9.34zm62.83-12.05h2.65v18.63h-2.65zm14.2 2.45h5.47v-2.45h-13.59v2.45h5.5v16.18h2.62zm-105.9 7.19h-8.02v-7.2h8.98v-2.44h-11.6v18.63h11.97v-2.44h-9.35v-4.14h8.02zm21.04 9.24V22.73h-2.53v13.23L86.99 22.49h-.83v18.87h2.52V28.13l11.86 13.48zm91.87-.25 1.53-3.79h8l1.53 3.79h2.7l-7.8-18.87h-.83l-7.8 18.87zm5.51-13.54 3 7.3h-6zm-52.77-5.33-7.8 18.87h2.7l1.54-3.79h7.95l1.54 3.79h2.72l-7.8-18.87zm-2.57 12.64 3-7.31 3 7.31zm-85.78 6.44a10.15 10.15 0 0 0 7.46-2.73v-6.47h-7.88v2.44h5.42v2.82a7.71 7.71 0 0 1-4.92 1.47 7.06 7.06 0 0 1-.32-14.11 6.42 6.42 0 0 1 5.49 2.54l1.88-1.75a8.92 8.92 0 0 0-7.31-3.26 9.53 9.53 0 1 0 .26 19.05z" style="font-weight:600;line-height:1.3;font-family:Roboto;-inkscape-font-specification:&quot;Roboto Semi-Bold&quot;;letter-spacing:.4px;display:inline;fill:#c8102e"/></svg>
