<?xml version="1.0" encoding="UTF-8" standalone="no"?>
<svg
   xml:space="preserve"
   style="enable-background:new 0 0 203.46 147.83"
   viewBox="0 0 203.46 147.83"
   version="1.1"
   id="svg10"
   sodipodi:docname="fpcv.svg"
   inkscape:version="1.3.2 (091e20ef0f, 2023-11-25)"
   xmlns:inkscape="http://www.inkscape.org/namespaces/inkscape"
   xmlns:sodipodi="http://sodipodi.sourceforge.net/DTD/sodipodi-0.dtd"
   xmlns="http://www.w3.org/2000/svg"
   xmlns:svg="http://www.w3.org/2000/svg"
>
  <g id="fpcv">
     <path style="fill:var(--md-typeset-color)" d="M 7.9101562 7.1503906 L 7.9101562 94.460938 L 18.130859 94.460938 L 18.130859 66.630859 L 37.789062 66.630859 L 37.789062 55.400391 L 18.130859 55.400391 L 18.130859 18.380859 L 42.130859 18.380859 L 42.130859 94.470703 L 52.339844 94.470703 L 52.339844 66.130859 L 60.960938 66.539062 C 61.400936 66.549062 61.839297 66.549062 62.279297 66.539062 C 68.849283 66.379064 75.109776 63.669054 80.009766 59.289062 L 83.109375 56.519531 C 85.369371 54.009537 87.119377 51.07968 88.359375 47.929688 C 92.889365 36.36971 89.300449 23.179906 79.980469 14.919922 L 79.869141 14.820312 C 76.299147 11.66032 71.980068 9.489998 67.330078 8.5 C 63.430086 7.6700016 59.179916 7.1503906 55.919922 7.1503906 L 7.9101562 7.1503906 z M 52.089844 18.380859 L 59.220703 18.380859 C 62.580697 18.380859 65.880787 19.250393 68.800781 20.900391 C 74.530771 24.140383 78.519766 29.87017 79.259766 36.410156 L 79.289062 36.699219 C 80.019062 43.799205 75.790924 50.490006 69.210938 53.25 L 68.949219 53.359375 A 26.087 26.087 0 0 1 58.869141 55.400391 L 52.089844 55.400391 L 52.089844 18.380859 z M 73.269531 73.609375 C 72.909534 73.629375 66.970069 73.990484 64.080078 79.230469 C 63.910078 79.540466 61.480243 84.129546 63.740234 89.019531 C 64.060234 89.719531 65.330009 92.249144 68.25 93.869141 C 72.179988 96.049132 76.079534 94.930625 77.019531 94.640625 C 79.519525 93.880628 81.160938 92.460153 81.960938 91.660156 L 79.220703 88.759766 C 78.860703 89.279763 77.700541 90.840469 75.560547 91.480469 C 72.400556 92.430466 69.809685 90.569062 69.429688 90.289062 C 67.319694 88.719068 66.769138 86.48945 66.619141 85.689453 C 66.489141 84.969456 66.17055 82.69015 67.560547 80.410156 C 68.050544 79.620159 69.360321 77.819685 71.820312 77.179688 C 72.110312 77.099688 74.76954 76.4593 77.269531 78.029297 A 6.77 6.77 0 0 1 78.970703 79.560547 L 81.779297 77.009766 C 81.269297 76.489766 78.109516 73.399375 73.269531 73.609375 z M 83.740234 73.609375 L 91.230469 95.179688 L 93.789062 95.179688 L 101.35938 73.609375 L 97.189453 73.609375 L 92.429688 86.890625 L 87.910156 73.609375 L 83.740234 73.609375 z M 70.789062 109.60938 L 70.789062 120.16992 L 71.970703 120.16992 L 71.970703 116.5 L 72.820312 116.5 C 73.710312 116.5 74.620081 116.36945 75.330078 115.68945 C 75.990075 115.05945 76.339844 114.05055 76.339844 113.06055 C 76.339844 111.97055 75.930388 110.88974 75.150391 110.25977 C 74.380391 109.63977 73.439294 109.60937 72.529297 109.60938 L 70.789062 109.60938 z M 61.820312 109.75 L 60.150391 112.05078 L 60.849609 112.43945 L 62.990234 110.2793 L 61.820312 109.75 z M 143.17969 109.75 L 143.17969 120.16992 L 144.30078 120.16992 L 144.30078 109.75 L 143.17969 109.75 z M 8.4902344 109.90039 L 8.4902344 120.01953 L 9.6699219 120.01953 L 9.6699219 115.4707 L 12.75 115.4707 L 12.75 114.33008 L 9.6699219 114.33008 L 9.6699219 111.05078 L 9.6699219 111.03906 L 13.289062 111.03906 L 13.289062 109.90039 L 8.4902344 109.90039 z M 93.449219 110.31055 C 92.779219 110.31055 92.119763 110.51 91.759766 111 C 91.469766 111.4 91.470703 111.97945 91.470703 112.43945 L 91.470703 113.57031 L 90.849609 113.57031 L 90.849609 114.73047 L 91.470703 114.73047 L 91.470703 120.16992 L 92.580078 120.16992 L 92.580078 114.73047 L 93.609375 114.73047 L 93.609375 113.57031 L 92.580078 113.57031 L 92.580078 112.76953 C 92.580078 111.78953 92.580237 111.25 93.490234 111.25 C 93.770234 111.25 94 111.31086 94.25 111.38086 L 94.25 110.42969 C 93.98 110.35969 93.719216 110.31055 93.449219 110.31055 z M 71.970703 110.86914 L 72.400391 110.86914 C 73.770385 110.86914 75.160156 111.01953 75.160156 113.01953 C 75.160156 114.76953 74.049997 115.23047 72.75 115.23047 L 71.970703 115.23047 L 71.970703 110.86914 z M 54.789062 111.09961 C 54.349065 111.09961 53.990234 111.47039 53.990234 111.90039 C 53.990234 112.35039 54.349065 112.69922 54.789062 112.69922 C 55.229062 112.69922 55.589844 112.35039 55.589844 111.90039 C 55.589844 111.47039 55.229062 111.09961 54.789062 111.09961 z M 115.44922 111.09961 C 115.00922 111.09961 114.65039 111.47039 114.65039 111.90039 C 114.65039 112.35039 115.00922 112.69922 115.44922 112.69922 C 115.88922 112.69922 116.25 112.35039 116.25 111.90039 C 116.25 111.47039 115.88922 111.09961 115.44922 111.09961 z M 98.419922 112.89062 C 96.579928 112.81065 95.520859 114.44016 95.380859 114.66016 C 95.280859 114.82016 94.319612 116.42086 95.099609 118.13086 C 95.559609 119.13086 96.529222 120.00039 97.699219 120.15039 C 98.509216 120.25039 99.170237 119.97961 99.490234 119.84961 C 100.38023 119.47961 100.91992 118.89031 101.16992 118.57031 L 100.25977 118.05078 C 100.14977 118.21078 99.740544 118.63906 99.060547 119.03906 C 98.07055 119.60906 96.650935 118.56935 96.460938 118.35938 L 100.94922 114.32031 C 100.82922 114.15031 99.939916 112.96062 98.419922 112.89062 z M 18.050781 113.40039 C 16.120787 113.40039 14.589844 114.96065 14.589844 116.89062 C 14.589844 118.82062 16.130787 120.34961 18.050781 120.34961 C 19.970775 120.34961 21.509766 118.82062 21.509766 116.89062 C 21.509766 114.95065 19.980775 113.40039 18.050781 113.40039 z M 26.349609 113.40039 C 25.619612 113.40039 25.280625 113.78078 24.890625 114.30078 L 24.869141 114.30078 L 24.869141 113.58984 L 23.75 113.58984 L 23.75 120.16992 L 24.869141 120.16992 L 24.869141 116.88086 C 24.869141 116.02086 24.930159 114.43945 26.160156 114.43945 C 26.450156 114.43945 26.610078 114.58047 26.830078 114.73047 L 27.359375 113.71094 C 27.039375 113.53094 26.729609 113.40039 26.349609 113.40039 z M 30.169922 113.40039 C 29.589922 113.40039 29.120312 113.75078 28.820312 114.30078 L 28.810547 114.30078 L 28.810547 113.58984 L 27.859375 113.58984 L 27.859375 120.16992 L 28.810547 120.16992 L 28.810547 116.76953 C 28.810547 115.76953 28.930784 114.43945 30.050781 114.43945 C 30.970778 114.43945 31.050781 115.61969 31.050781 116.42969 L 31.050781 120.16992 L 32 120.16992 L 32 116.67969 C 32 115.68969 32.120706 114.43945 33.220703 114.43945 C 34.1907 114.43945 34.240234 115.49961 34.240234 116.34961 L 34.240234 120.16992 L 35.189453 120.16992 L 35.189453 116.16016 C 35.189453 114.77016 34.830385 113.40039 33.400391 113.40039 C 32.720391 113.40039 32.050703 113.76026 31.720703 114.49023 C 31.420703 113.81026 30.829919 113.40039 30.169922 113.40039 z M 39.929688 113.40039 C 37.949691 113.40039 36.759766 115.01065 36.759766 116.89062 C 36.759766 118.71062 37.980162 120.34961 39.910156 120.34961 C 40.840153 120.34961 41.609688 119.98974 42.179688 119.25977 L 42.210938 119.25977 L 42.210938 120.16992 L 43.330078 120.16992 L 43.339844 120.16992 L 43.339844 113.58008 L 42.220703 113.58008 L 42.220703 114.51953 L 42.189453 114.51953 C 41.639456 113.81953 40.829685 113.40039 39.929688 113.40039 z M 61 113.40039 C 59.070006 113.40039 57.539062 114.96065 57.539062 116.89062 C 57.539062 118.82062 59.080006 120.34961 61 120.34961 C 62.919994 120.34961 64.460938 118.82062 64.460938 116.89062 C 64.460937 114.95065 62.929994 113.40039 61 113.40039 z M 80.599609 113.40039 C 79.869612 113.40039 79.530625 113.78078 79.140625 114.30078 L 79.119141 114.30078 L 79.119141 113.58984 L 78 113.58984 L 78 120.16992 L 79.119141 120.16992 L 79.119141 116.88086 C 79.119141 116.02086 79.180159 114.43945 80.410156 114.43945 C 80.700156 114.43945 80.860078 114.58047 81.080078 114.73047 L 81.609375 113.71094 C 81.289375 113.53094 80.979609 113.40039 80.599609 113.40039 z M 85.419922 113.40039 C 83.489928 113.40039 81.960937 114.96065 81.960938 116.89062 C 81.960938 118.82062 83.499928 120.34961 85.419922 120.34961 C 87.339916 120.34961 88.880859 118.82062 88.880859 116.89062 C 88.880859 114.95065 87.349916 113.40039 85.419922 113.40039 z M 105.17969 113.40039 C 104.11969 113.40039 103.2207 114.14977 103.2207 115.25977 C 103.2207 117.32974 106.18945 116.83078 106.18945 118.30078 C 106.18945 118.90078 105.73086 119.31055 105.13086 119.31055 C 104.39086 119.31055 104.06906 118.87977 103.78906 118.25977 L 102.80078 118.67969 C 103.15078 119.71969 104.02086 120.34961 105.13086 120.34961 C 106.35086 120.34961 107.35938 119.46094 107.35938 118.21094 C 107.35938 117.11094 106.60008 116.64031 105.83008 116.32031 C 105.06008 116.00031 104.30078 115.76992 104.30078 115.16992 C 104.30078 114.74992 104.71938 114.43945 105.10938 114.43945 C 105.51935 114.43945 105.85977 114.75938 106.00977 115.10938 L 106.92969 114.61914 C 106.63969 113.92914 105.93969 113.40039 105.17969 113.40039 z M 110.93945 113.40039 C 109.87945 113.40039 108.98047 114.14977 108.98047 115.25977 C 108.98047 117.32974 111.94922 116.83078 111.94922 118.30078 C 111.94922 118.90078 111.49062 119.31055 110.89062 119.31055 C 110.15065 119.31055 109.83078 118.87977 109.55078 118.25977 L 108.56055 118.67969 C 108.91055 119.71969 109.78065 120.34961 110.89062 120.34961 C 112.11062 120.34961 113.11914 119.46094 113.11914 118.21094 C 113.11914 117.11094 112.35984 116.64031 111.58984 116.32031 C 110.81984 116.00031 110.06055 115.76992 110.06055 115.16992 C 110.06055 114.74992 110.47914 114.43945 110.86914 114.43945 C 111.27914 114.43945 111.61953 114.75938 111.76953 115.10938 L 112.68945 114.61914 C 112.39945 113.92914 111.69945 113.40039 110.93945 113.40039 z M 121.63086 113.40039 C 119.70086 113.40039 118.16992 114.96065 118.16992 116.89062 C 118.16992 118.82062 119.71086 120.34961 121.63086 120.34961 C 123.55086 120.34961 125.08984 118.82062 125.08984 116.89062 C 125.08984 114.95065 123.56086 113.40039 121.63086 113.40039 z M 129.69922 113.40039 C 128.96922 113.40039 128.42953 113.75086 128.01953 114.38086 L 128 114.38086 L 128 113.58984 L 127 113.58984 L 127 120.16992 L 128 120.16992 L 128 117.05078 C 128 115.87078 128.08094 114.43945 129.46094 114.43945 C 130.63094 114.43945 130.69922 115.40094 130.69922 116.46094 L 130.69922 120.16992 L 131.69922 120.16992 L 131.69922 116.25977 C 131.69922 114.71977 131.32922 113.40039 129.69922 113.40039 z M 137.75 113.40039 C 135.77 113.40039 134.58008 115.01065 134.58008 116.89062 C 134.58008 118.71062 135.80047 120.34961 137.73047 120.34961 C 138.66047 120.34961 139.43 119.98974 140 119.25977 L 140.01953 119.25977 L 140.01953 120.16992 L 141.14062 120.16992 L 141.16016 120.16992 L 141.16016 113.58008 L 140.03906 113.58008 L 140.03906 114.51953 L 140.00977 114.51953 C 139.45977 113.81953 138.65 113.40039 137.75 113.40039 z M 49.529297 113.41016 C 47.589303 113.41016 46.009766 114.92086 46.009766 116.88086 C 46.009766 118.87086 47.519772 120.34961 49.509766 120.34961 C 50.299763 120.34961 50.959612 120.10969 51.599609 119.67969 L 51.599609 118.17969 L 51.570312 118.17969 C 51.030315 118.88969 50.369685 119.31055 49.429688 119.31055 C 48.059691 119.31055 47.160156 118.16914 47.160156 116.86914 C 47.160156 115.54914 48.13024 114.42969 49.490234 114.42969 C 50.380231 114.42969 51.019065 114.87906 51.539062 115.53906 L 51.560547 115.53906 L 51.560547 114.07031 C 50.970547 113.65031 50.239294 113.41016 49.529297 113.41016 z M 54.230469 113.58984 L 54.230469 120.16992 L 55.349609 120.16992 L 55.349609 113.58984 L 54.230469 113.58984 z M 114.89062 113.58984 L 114.89062 120.16992 L 116.00977 120.16992 L 116.00977 113.58984 L 114.89062 113.58984 z M 98.115234 113.90039 C 98.80789 113.88747 99.486487 114.18172 99.630859 114.33984 L 96.119141 117.34961 C 95.729141 116.82961 95.860781 116.0007 96.050781 115.4707 C 96.220781 115.0007 96.510938 114.60039 97.210938 114.15039 C 97.48281 113.97539 97.800393 113.90626 98.115234 113.90039 z M 18.050781 114.42969 C 19.440778 114.42969 20.390625 115.53914 20.390625 116.86914 C 20.390625 118.21914 19.440778 119.31055 18.050781 119.31055 C 16.660787 119.31055 15.710937 118.20914 15.710938 116.86914 C 15.710938 115.53914 16.660787 114.42969 18.050781 114.42969 z M 61.009766 114.42969 C 62.39976 114.42969 63.349609 115.53914 63.349609 116.86914 C 63.349609 118.21914 62.39976 119.31055 61.009766 119.31055 C 59.619769 119.31055 58.669922 118.20914 58.669922 116.86914 C 58.669922 115.53914 59.619769 114.42969 61.009766 114.42969 z M 85.419922 114.42969 C 86.809916 114.42969 87.759766 115.53914 87.759766 116.86914 C 87.759766 118.21914 86.809916 119.31055 85.419922 119.31055 C 84.029925 119.31055 83.080078 118.20914 83.080078 116.86914 C 83.080078 115.53914 84.029925 114.42969 85.419922 114.42969 z M 121.63086 114.42969 C 123.02086 114.42969 123.9707 115.53914 123.9707 116.86914 C 123.9707 118.21914 123.02086 119.31055 121.63086 119.31055 C 120.24086 119.31055 119.28906 118.20914 119.28906 116.86914 C 119.28906 115.53914 120.24086 114.42969 121.63086 114.42969 z M 40.060547 114.44922 C 41.440541 114.44922 42.269531 115.51008 42.269531 116.83008 C 42.269531 118.16008 41.510309 119.32031 40.070312 119.32031 C 38.670318 119.32031 37.910156 118.10055 37.910156 116.81055 C 37.910156 115.57055 38.75055 114.43922 40.060547 114.44922 z M 137.86914 114.44922 C 139.24914 114.44922 140.08008 115.51008 140.08008 116.83008 C 140.08008 118.16008 139.32086 119.32031 137.88086 119.32031 C 136.48086 119.32031 135.7207 118.10055 135.7207 116.81055 C 135.7207 115.57055 136.55914 114.43922 137.86914 114.44922 z M 13.390625 126.24023 C 10.370634 126.24023 7.890625 128.71026 7.890625 131.74023 C 7.890625 134.74023 10.410634 137.16016 13.390625 137.16016 C 14.510622 137.16016 15.629065 136.77914 16.539062 136.11914 L 16.539062 134.66016 C 15.699065 135.50016 14.539606 136.06055 13.349609 136.06055 C 10.979618 136.06055 9.0605469 134.01945 9.0605469 131.68945 C 9.0605469 129.35948 10.970321 127.32031 13.320312 127.32031 C 14.540309 127.32031 15.699065 127.8507 16.539062 128.7207 L 16.539062 127.2793 C 15.599065 126.5793 14.570622 126.24023 13.390625 126.24023 z M 94.75 126.66992 L 94.75 136.9707 L 95.869141 136.9707 L 95.869141 126.66992 L 94.75 126.66992 z M 76.689453 127.0293 L 80.419922 137.15039 L 81.609375 137.15039 L 85.259766 127.0293 L 83.990234 127.0293 L 80.980469 135.08008 L 77.960938 127.0293 L 76.689453 127.0293 z M 51.609375 128.00977 C 51.169375 128.00977 50.810547 128.38055 50.810547 128.81055 C 50.810547 129.26055 51.169375 129.60937 51.609375 129.60938 C 52.049375 129.60938 52.410156 129.26055 52.410156 128.81055 C 52.410156 128.38055 52.049375 128.00977 51.609375 128.00977 z M 55.429688 128.00977 L 55.429688 130.38086 L 54.740234 130.38086 L 54.740234 131.41992 L 55.429688 131.41992 L 55.429688 136.9707 L 56.550781 136.9707 L 56.550781 131.41992 L 57.730469 131.41992 L 57.730469 130.38086 L 56.550781 130.38086 L 56.550781 128.00977 L 55.429688 128.00977 z M 69.130859 128.00977 L 69.130859 130.38086 L 68.439453 130.38086 L 68.439453 131.41992 L 69.130859 131.41992 L 69.130859 136.9707 L 70.25 136.9707 L 70.25 131.41992 L 71.429688 131.41992 L 71.429688 130.38086 L 70.25 130.38086 L 70.25 128.00977 L 69.130859 128.00977 z M 122.41992 128.06055 C 121.97992 128.06055 121.61914 128.42938 121.61914 128.85938 C 121.61914 129.30935 121.97992 129.66016 122.41992 129.66016 C 122.85992 129.66016 123.2207 129.30935 123.2207 128.85938 C 123.2207 128.42938 122.85992 128.06055 122.41992 128.06055 z M 101.32031 129.86719 C 99.585181 129.89027 98.584844 131.42752 98.449219 131.64062 C 98.349219 131.80062 97.389925 133.39938 98.169922 135.10938 C 98.629919 136.10935 99.599536 136.98086 100.76953 137.13086 C 101.57953 137.23086 102.24055 136.96008 102.56055 136.83008 C 103.45055 136.46008 103.99023 135.87078 104.24023 135.55078 L 103.33008 135.0293 C 103.22008 135.1893 102.81086 135.61953 102.13086 136.01953 C 101.14086 136.58953 99.719297 135.54984 99.529297 135.33984 L 104.01953 131.30078 C 103.89953 131.13078 103.01023 129.93914 101.49023 129.86914 C 101.43273 129.86664 101.37628 129.86644 101.32031 129.86719 z M 21.400391 130.19922 C 19.470397 130.19922 17.939453 131.75948 17.939453 133.68945 C 17.939453 135.61945 19.480397 137.15039 21.400391 137.15039 C 23.320385 137.15039 24.859375 135.61945 24.859375 133.68945 C 24.859375 131.74948 23.330385 130.19922 21.400391 130.19922 z M 29.410156 130.19922 C 28.830159 130.19922 28.360547 130.54961 28.060547 131.09961 L 28.050781 131.09961 L 28.050781 130.39062 L 27.099609 130.39062 L 27.099609 136.9707 L 28.050781 136.9707 L 28.050781 133.57031 C 28.050781 132.57031 28.169068 131.24023 29.289062 131.24023 C 30.209062 131.24023 30.289062 132.42047 30.289062 133.23047 L 30.289062 136.9707 L 31.240234 136.9707 L 31.240234 133.48047 C 31.240234 132.49047 31.360941 131.24023 32.460938 131.24023 C 33.430935 131.24023 33.480469 132.30039 33.480469 133.15039 L 33.480469 136.9707 L 34.429688 136.9707 L 34.429688 132.96094 C 34.429688 131.57094 34.070622 130.19922 32.640625 130.19922 C 31.960628 130.19922 31.290935 130.55906 30.960938 131.28906 C 30.660938 130.60906 30.070156 130.19922 29.410156 130.19922 z M 46.5 130.19922 C 45.730003 130.19922 45.170466 130.54969 44.730469 131.17969 L 44.699219 131.17969 L 44.699219 130.39062 L 43.640625 130.39062 L 43.640625 136.9707 L 44.699219 136.9707 L 44.699219 133.84961 C 44.699219 132.66961 44.79024 131.24023 46.240234 131.24023 C 47.470231 131.24023 47.550781 132.19977 47.550781 133.25977 L 47.550781 136.9707 L 48.609375 136.9707 L 48.609375 133.06055 C 48.609375 131.52055 48.219994 130.19922 46.5 130.19922 z M 62.939453 130.19922 C 60.959459 130.19922 59.769531 131.80948 59.769531 133.68945 C 59.769531 135.50945 60.989928 137.15039 62.919922 137.15039 C 63.849919 137.15039 64.619456 136.79055 65.189453 136.06055 L 65.220703 136.06055 L 65.220703 136.9707 L 66.339844 136.9707 L 66.349609 136.9707 L 66.349609 130.38086 L 65.230469 130.38086 L 65.230469 131.32031 L 65.199219 131.32031 C 64.649219 130.62031 63.83945 130.19922 62.939453 130.19922 z M 88.949219 130.19922 C 86.969225 130.19922 85.779297 131.80948 85.779297 133.68945 C 85.779297 135.50945 86.999691 137.15039 88.929688 137.15039 C 89.859685 137.15039 90.629219 136.79055 91.199219 136.06055 L 91.230469 136.06055 L 91.230469 136.9707 L 92.349609 136.9707 L 92.359375 136.9707 L 92.359375 130.38086 L 91.240234 130.38086 L 91.240234 131.32031 L 91.210938 131.32031 C 90.660938 130.62031 89.849216 130.19922 88.949219 130.19922 z M 109.36914 130.19922 C 108.54914 130.19922 107.95023 130.54969 107.49023 131.17969 L 107.46094 131.17969 L 107.46094 130.39062 L 106.33984 130.39062 L 106.33984 136.9707 L 107.46094 136.9707 L 107.46094 133.84961 C 107.46094 132.66961 107.55961 131.24023 109.09961 131.24023 C 110.40961 131.24023 110.49023 132.19977 110.49023 133.25977 L 110.49023 136.9707 L 111.60938 136.9707 L 111.60938 133.06055 C 111.60938 131.52055 111.18914 130.19922 109.36914 130.19922 z M 128.74023 130.19922 C 126.76026 130.19922 125.57031 131.80948 125.57031 133.68945 C 125.57031 135.50945 126.79073 137.15039 128.7207 137.15039 C 129.6507 137.15039 130.42023 136.79055 130.99023 136.06055 L 131.01953 136.06055 L 131.01953 136.9707 L 132.14062 136.9707 L 132.15039 136.9707 L 132.15039 130.38086 L 131.0293 130.38086 L 131.0293 131.32031 L 131 131.32031 C 130.45 130.62031 129.64023 130.19922 128.74023 130.19922 z M 137.0293 130.19922 C 136.2793 130.19922 135.72078 130.54969 135.30078 131.17969 L 135.2793 131.17969 L 135.2793 130.39062 L 134.25 130.39062 L 134.25 136.9707 L 135.2793 136.9707 L 135.2793 133.84961 C 135.2793 132.66961 135.36906 131.24023 136.78906 131.24023 C 137.97906 131.24023 138.06055 132.19977 138.06055 133.25977 L 138.06055 136.9707 L 139.08984 136.9707 L 139.08984 133.06055 C 139.08984 131.52055 138.6993 130.19922 137.0293 130.19922 z M 144.24023 130.19922 C 142.26026 130.19922 141.07031 131.80948 141.07031 133.68945 C 141.07031 135.50945 142.29073 137.15039 144.2207 137.15039 C 145.1507 137.15039 145.92023 136.79055 146.49023 136.06055 L 146.51953 136.06055 L 146.51953 136.9707 L 147.64062 136.9707 L 147.65039 136.9707 L 147.65039 130.38086 L 146.5293 130.38086 L 146.5293 131.32031 L 146.5 131.32031 C 145.95 130.62031 145.14023 130.19922 144.24023 130.19922 z M 116.58008 130.21094 C 114.64008 130.21094 113.06055 131.71969 113.06055 133.67969 C 113.06055 135.66969 114.57055 137.15039 116.56055 137.15039 C 117.35055 137.15039 118.01039 136.91047 118.65039 136.48047 L 118.65039 134.98047 L 118.61914 134.98047 C 118.07914 135.69047 117.42047 136.10938 116.48047 136.10938 C 115.11047 136.10938 114.21094 134.96992 114.21094 133.66992 C 114.21094 132.34992 115.17906 131.23047 116.53906 131.23047 C 117.42906 131.23047 118.06984 131.67984 118.58984 132.33984 L 118.60938 132.33984 L 118.60938 130.86914 C 118.01938 130.44914 117.29008 130.21094 116.58008 130.21094 z M 36.119141 130.38086 L 36.119141 134.17969 C 36.119141 135.92969 36.780475 137.15039 38.730469 137.15039 C 40.680463 137.15039 41.339844 135.92969 41.339844 134.17969 L 41.339844 130.38086 L 40.220703 130.38086 L 40.220703 134.05078 C 40.220703 135.16078 40.090231 136.10937 38.740234 136.10938 C 37.39024 136.10938 37.259766 135.16078 37.259766 134.05078 L 37.240234 134.05078 L 37.240234 130.38086 L 36.119141 130.38086 z M 51.050781 130.39062 L 51.050781 136.9707 L 52.169922 136.9707 L 52.169922 130.39062 L 51.050781 130.39062 z M 121.85938 130.39062 L 121.85938 136.9707 L 122.98047 136.9707 L 122.98047 130.39062 L 121.85938 130.39062 z M 101.18359 130.87891 C 101.87625 130.86599 102.55484 131.16219 102.69922 131.32031 L 99.189453 134.33008 C 98.799456 133.81008 98.929141 132.97922 99.119141 132.44922 C 99.289138 131.97922 99.579294 131.58086 100.2793 131.13086 C 100.55117 130.95586 100.86875 130.88478 101.18359 130.87891 z M 21.400391 131.23047 C 22.790385 131.23047 23.740234 132.33992 23.740234 133.66992 C 23.740234 135.01992 22.790385 136.10938 21.400391 136.10938 C 20.010394 136.10938 19.060547 135.00992 19.060547 133.66992 C 19.060547 132.33992 20.010394 131.23047 21.400391 131.23047 z M 63.070312 131.24023 C 64.450309 131.24023 65.279297 132.29914 65.279297 133.61914 C 65.279297 134.94914 64.520075 136.10937 63.080078 136.10938 C 61.680084 136.10938 60.919922 134.88961 60.919922 133.59961 C 60.919922 132.36961 61.760318 131.24023 63.070312 131.24023 z M 89.080078 131.24023 C 90.460075 131.24023 91.289062 132.29914 91.289062 133.61914 C 91.289062 134.94914 90.529838 136.10937 89.089844 136.10938 C 87.689847 136.10938 86.929688 134.88961 86.929688 133.59961 C 86.929688 132.36961 87.770081 131.24023 89.080078 131.24023 z M 128.86914 131.24023 C 130.24914 131.24023 131.08008 132.29914 131.08008 133.61914 C 131.08008 134.94914 130.32086 136.10937 128.88086 136.10938 C 127.48086 136.10938 126.7207 134.88961 126.7207 133.59961 C 126.7207 132.36961 127.55914 131.24023 128.86914 131.24023 z M 144.36914 131.24023 C 145.74914 131.24023 146.58008 132.29914 146.58008 133.61914 C 146.58008 134.94914 145.82086 136.10937 144.38086 136.10938 C 142.98086 136.10938 142.2207 134.88961 142.2207 133.59961 C 142.2207 132.36961 143.05914 131.24023 144.36914 131.24023 z " />
     <path d="M152.73 6.63c-22.07.25-40.5 17.77-41.81 39.79-1.47 24.55 18.08 44.99 42.31 44.99 23.38 0 42.4-19.02 42.4-42.4 0-1.97-.14-3.92-.4-5.85-.1-.69-.21-1.37-.34-2.06-.05-.27-.1-.54-.16-.8-.22-1.03-.87-1.97-1.85-2.35-.36-.14-.74-.21-1.15-.21-1.15 0-2.16.62-2.71 1.54-.41.68-.45 1.52-.27 2.3.06.25.11.5.16.75.15.64.27 1.29.37 1.94.28 1.83.43 3.69.43 5.58 0 20.5-17.4 37.03-38.21 35.58-17.57-1.23-31.81-15.46-33.04-33.04-1.45-20.82 15.08-38.21 35.58-38.21 1.46 0 2.92.09 4.36.27.79.09 1.93.31 2.92.51 2.37.49 4.74-1.23 4.77-3.65v-.09a3.455 3.455 0 0 0-2.59-3.34c-1.23-.31-2.48-.56-3.73-.75-2.32-.36-4.66-.53-7.04-.5z"
       style="fill:#418594;stroke:#418594;stroke-width:2;stroke-miterlimit:10"
     />
     <path d="M153.4 22.73c-.11 0-.2 0-.29.01-.31 0-.62.01-.93.02a3.054 3.054 0 0 0-2.94 2.79v.03c-.15 2.04.49 3.71 2.85 4.27.34-.02.97.04 1.31.04.34 0 .68.01 1.02.03h.02c10.66.54 19.17 9.39 19.17 20.19 0 11.15-9.07 20.22-20.21 20.22-10.58 0-19.28-8.16-20.15-18.52-.05-.56-.07-1.13-.07-1.7s.06-1.08-.11-1.66c-.11-.28-.19-.76-.45-1.06a4.148 4.148 0 0 0-2.85-1.43h-.04c-1.99-.14-3.66 1.54-3.71 3.53 0 .21-.01.41-.01.62 0 .84.04 1.66.12 2.48 1.32 14.75 14.41 26.16 29.77 24.79 13.04-1.16 23.59-11.7 24.77-24.74 1.37-15.25-9.82-28.23-24.39-29.76-.85-.09-1.72-.14-2.59-.14-.1-.01-.19-.01-.29-.01z"
       style="fill:#91b7c4;stroke:#91b7c4;stroke-width:2;stroke-miterlimit:10"
     />
     <path
       d="M132.49 42.5c.11.01.23.01.34.01h.02c1.09-.01 2.07-.7 2.57-1.67.55-1.08 1.21-2.11 1.95-3.06 1.04-1.35 2.25-2.57 3.6-3.62 1.09-.85 2.26-1.59 3.51-2.2.74-.36 1.23-1.11 1.29-1.93v-.02c.01-.17.01-.33.01-.5-.11-2.97-3.52-4.59-6.09-3.1-.91.53-1.79 1.11-2.63 1.73a27.374 27.374 0 0 0-5.48 5.43c-.49.64-.94 1.29-1.37 1.97-.01.01-.01.01-.02.03a29.992 29.992 0 0 0-1.12 1.96c-.57 1.09-.52 2.46.29 3.38 0 .01.01.01.01.02.8.92 1.9 1.48 3.12 1.57z"
       style="fill:#c0d6dd;stroke:#c0d6dd;stroke-width:2;stroke-miterlimit:10"
     />
     <circle cx="153.39" cy="49.08" r="12.67" style="fill:#d1e0e6;stroke:#d1e0e6;stroke-width:2;stroke-miterlimit:10"
     />
  </g>
</svg>
