<svg xmlns="http://www.w3.org/2000/svg" xmlns:xlink="http://www.w3.org/1999/xlink" xml:space="preserve" viewBox="0 0 1066.327 281.319"><defs><g id="b"><path id="a" d="M0 0v1h.5Z" transform="rotate(18 3.157 -.5)"/><use xlink:href="#a" transform="scale(-1 1)"/></g><g id="c"><use xlink:href="#b" transform="rotate(72)"/><use xlink:href="#b" transform="rotate(144)"/></g></defs><g transform="translate(1074.68 -.026)"><path d="M-1074.68.026h421.972v281.319h-421.971V.026" style="fill:#039;fill-opacity:1;fill-rule:nonzero;stroke:none;stroke-width:.14879"/><path d="m-818.095 45.973-3.4 10.64-11.126-.023 9.015 6.498-3.376 10.488 8.899-6.497 8.877 6.497-3.378-10.488 9.027-6.498h-11.138l-3.4-10.617m24.703 61.181 8.887-6.485 8.887 6.485-3.386-10.488 9.025-6.474h-11.115l-3.411-10.63-3.41 10.64-11.116-.01 9.026 6.474-3.387 10.489m35.632 28.972h-11.127l-3.411-10.628-3.4 10.64-11.127-.012 9.027 6.485-3.376 10.49 8.876-6.497 8.888 6.497-3.377-10.49 9.027-6.485m-23.334 46.203-3.411-10.63-3.41 10.64-11.116-.01 9.026 6.486-3.387 10.489 8.887-6.498 8.887 6.498-3.386-10.489 9.025-6.485h-11.115m-33.73 33.717-3.399-10.618-3.411 10.63-11.115-.012 9.015 6.486-3.376 10.488 8.887-6.486 8.888 6.486-3.388-10.488 9.028-6.486h-11.128m-45.936 12.217-3.404-10.628-3.4 10.64-11.127-.012 9.02 6.486-3.376 10.49 8.889-6.486 8.881 6.485-3.382-10.49 9.027-6.485h-11.128m-45.935-12.217-3.405-10.618-3.4 10.63-11.128-.012 9.022 6.486-3.376 10.488 8.888-6.486 8.88 6.486-3.375-10.488 9.021-6.486h-11.127m-33.718-33.718-3.405-10.63-3.405 10.64-11.121-.01 9.02 6.486-3.381 10.489 8.887-6.498 8.887 6.498-3.381-10.489 9.02-6.485h-11.12m-15.752-35.587 8.883 6.486-3.378-10.49 9.023-6.485h-11.123l-3.405-10.628-3.406 10.651-11.126-.023 9.026 6.485-3.381 10.49 8.887-6.486m12.346-67.053-3.405 10.64-11.121-.013 9.02 6.488-3.381 10.488 8.887-6.486 8.887 6.486-3.381-10.488 9.02-6.488h-11.12l-3.406-10.627m24.765-6.127 8.889-6.485 8.883 6.485-3.378-10.488 9.021-6.486h-11.127l-3.405-10.629-3.406 10.64-11.12-.01 9.02 6.485-3.377 10.489m45.994-12.357 8.887-6.486 8.889 6.486-3.382-10.49 9.027-6.486h-11.128l-3.406-10.616-3.404 10.628-11.12-.012 9.019 6.486-3.382 10.49" style="fill:#fc0;fill-opacity:1;fill-rule:nonzero;stroke:none;stroke-width:.148516"/><path d="M-631.983 174.1v-48.676h32.838v5.744h-26.397v15.075h22.844v5.744h-22.844V174.1zm38.217-17.63c0-6.53 1.815-11.367 5.445-14.51 3.032-2.612 6.729-3.919 11.09-3.919 4.847 0 8.81 1.594 11.887 4.782 3.076 3.166 4.615 7.548 4.615 13.148 0 4.538-.687 8.113-2.06 10.725-1.35 2.59-3.33 4.604-5.942 6.043-2.59 1.439-5.424 2.158-8.5 2.158-4.936 0-8.932-1.582-11.986-4.748-3.034-3.165-4.55-7.725-4.55-13.68zm6.142 0c0 4.516.985 7.902 2.955 10.16 1.97 2.236 4.449 3.353 7.438 3.353 2.966 0 5.434-1.129 7.404-3.387 1.97-2.258 2.955-5.7 2.955-10.326 0-4.36-.996-7.659-2.988-9.895-1.97-2.257-4.427-3.386-7.371-3.386-2.99 0-5.468 1.118-7.438 3.353-1.97 2.236-2.955 5.612-2.955 10.127zm33.9 17.63v-35.262h5.38v5.014c2.589-3.873 6.33-5.81 11.222-5.81 2.125 0 4.073.388 5.844 1.162 1.793.752 3.132 1.748 4.018 2.988.885 1.24 1.505 2.712 1.859 4.416.22 1.107.332 3.044.332 5.81V174.1h-5.977v-21.45c0-2.434-.233-4.25-.697-5.445-.465-1.217-1.295-2.18-2.49-2.888-1.174-.73-2.557-1.096-4.15-1.096-2.546 0-4.75.808-6.608 2.424-1.838 1.616-2.756 4.682-2.756 9.197V174.1zm35.428-10.525 5.91-.93c.332 2.369 1.25 4.184 2.756 5.445 1.527 1.262 3.652 1.893 6.375 1.893 2.745 0 4.782-.553 6.11-1.66 1.328-1.13 1.992-2.446 1.992-3.95 0-1.351-.587-2.414-1.76-3.189-.82-.531-2.856-1.206-6.11-2.025-4.382-1.106-7.426-2.058-9.13-2.856-1.682-.818-2.966-1.936-3.852-3.353-.863-1.439-1.294-3.022-1.294-4.748 0-1.572.354-3.022 1.062-4.35a9.804 9.804 0 0 1 2.955-3.354c.93-.686 2.191-1.261 3.785-1.726 1.616-.486 3.342-.73 5.18-.73 2.766 0 5.19.399 7.27 1.195 2.104.797 3.654 1.882 4.65 3.254.996 1.35 1.682 3.165 2.058 5.445l-5.843.797c-.266-1.815-1.041-3.232-2.325-4.25-1.262-1.018-3.054-1.528-5.378-1.528-2.746 0-4.705.454-5.877 1.362-1.174.908-1.76 1.97-1.76 3.187 0 .775.243 1.472.73 2.092.486.642 1.25 1.174 2.29 1.594.599.222 2.359.73 5.28 1.527 4.228 1.13 7.172 2.06 8.833 2.79 1.682.708 2.998 1.748 3.95 3.12.952 1.373 1.429 3.078 1.429 5.114 0 1.992-.587 3.874-1.76 5.644-1.152 1.749-2.823 3.11-5.014 4.084-2.192.952-4.67 1.428-7.437 1.428-4.582 0-8.08-.952-10.493-2.856-2.391-1.903-3.918-4.725-4.582-8.466zm53.856-5.114 6.076-.53c.288 2.434.952 4.437 1.992 6.01 1.062 1.549 2.7 2.81 4.914 3.784 2.213.952 4.703 1.428 7.47 1.428 2.458 0 4.627-.365 6.509-1.096 1.88-.73 3.275-1.726 4.183-2.988.93-1.284 1.395-2.678 1.395-4.184 0-1.526-.443-2.854-1.328-3.984-.886-1.151-2.347-2.114-4.383-2.889-1.306-.51-4.195-1.295-8.666-2.357-4.472-1.084-7.604-2.103-9.396-3.055-2.325-1.217-4.063-2.722-5.213-4.516-1.13-1.814-1.694-3.84-1.694-6.076 0-2.456.697-4.747 2.092-6.873 1.394-2.146 3.43-3.773 6.11-4.88 2.678-1.106 5.655-1.66 8.93-1.66 3.609 0 6.785.587 9.53 1.76 2.767 1.15 4.892 2.854 6.375 5.112 1.483 2.258 2.28 4.815 2.39 7.67l-6.175.465c-.332-3.076-1.461-5.4-3.387-6.973-1.904-1.571-4.726-2.357-8.466-2.357-3.896 0-6.741.72-8.534 2.158-1.771 1.417-2.656 3.133-2.656 5.147 0 1.749.63 3.188 1.893 4.316 1.24 1.129 4.471 2.29 9.695 3.486 5.246 1.174 8.843 2.203 10.79 3.088 2.834 1.307 4.926 2.967 6.277 4.98 1.35 1.993 2.025 4.295 2.025 6.907 0 2.59-.742 5.036-2.225 7.338-1.483 2.28-3.62 4.062-6.408 5.346-2.767 1.262-5.888 1.892-9.363 1.892-4.406 0-8.102-.642-11.09-1.926-2.967-1.283-5.302-3.209-7.006-5.777-1.682-2.59-2.568-5.512-2.656-8.766zm44.558-1.992c0-6.53 1.815-11.366 5.446-14.51 3.032-2.612 6.729-3.918 11.09-3.918 4.847 0 8.809 1.594 11.886 4.782 3.077 3.166 4.616 7.548 4.616 13.148 0 4.538-.687 8.113-2.06 10.725-1.35 2.59-3.33 4.604-5.942 6.043-2.59 1.439-5.424 2.158-8.5 2.158-4.937 0-8.933-1.582-11.987-4.748-3.033-3.165-4.55-7.725-4.55-13.68zm6.143 0c0 4.516.985 7.903 2.955 10.16 1.97 2.236 4.449 3.354 7.438 3.354 2.966 0 5.434-1.129 7.404-3.387 1.97-2.258 2.955-5.7 2.955-10.326 0-4.36-.996-7.659-2.988-9.895-1.97-2.257-4.427-3.386-7.371-3.386-2.99 0-5.468 1.118-7.438 3.353-1.97 2.236-2.955 5.612-2.955 10.127zm56.91 4.715 5.877.764c-.642 4.051-2.291 7.227-4.947 9.53-2.634 2.28-5.877 3.42-9.73 3.42-4.825 0-8.71-1.572-11.653-4.716-2.922-3.165-4.383-7.692-4.383-13.58 0-3.807.63-7.138 1.893-9.994 1.26-2.855 3.176-4.991 5.744-6.408 2.59-1.439 5.4-2.159 8.434-2.159 3.829 0 6.96.974 9.396 2.922 2.434 1.926 3.995 4.671 4.682 8.235l-5.81.896c-.554-2.368-1.54-4.15-2.956-5.346-1.395-1.195-3.088-1.793-5.08-1.793-3.011 0-5.457 1.085-7.338 3.254-1.882 2.148-2.822 5.557-2.822 10.227 0 4.737.907 8.179 2.723 10.326 1.814 2.147 4.183 3.22 7.105 3.22 2.346 0 4.305-.719 5.877-2.157 1.57-1.44 2.567-3.653 2.988-6.64zm11.024-28.887v-6.873h5.976v6.873zm0 41.803v-35.262h5.976V174.1zm38.084-4.35c-2.214 1.882-4.35 3.21-6.41 3.985-2.035.775-4.227 1.162-6.573 1.162-3.874 0-6.85-.94-8.931-2.822-2.082-1.904-3.122-4.328-3.122-7.272 0-1.726.387-3.298 1.163-4.715.796-1.438 1.825-2.59 3.087-3.453 1.284-.863 2.723-1.516 4.317-1.959 1.173-.31 2.944-.608 5.312-.896 4.826-.576 8.379-1.262 10.659-2.059.022-.818.033-1.338.033-1.56 0-2.435-.565-4.15-1.694-5.147-1.527-1.35-3.796-2.025-6.806-2.025-2.812 0-4.892.498-6.242 1.494-1.33.974-2.314 2.711-2.955 5.213l-5.844-.797c.53-2.501 1.405-4.515 2.623-6.043 1.217-1.549 2.977-2.733 5.28-3.553 2.3-.841 4.968-1.262 8-1.262 3.011 0 5.457.355 7.339 1.063 1.88.708 3.264 1.605 4.15 2.69.885 1.062 1.505 2.412 1.86 4.05.199 1.018.299 2.856.299 5.512v7.97c0 5.555.121 9.075.365 10.557a13.606 13.606 0 0 0 1.527 4.217h-6.242c-.62-1.24-1.019-2.69-1.195-4.35zm-.498-13.347c-2.17.886-5.424 1.638-9.762 2.258-2.458.354-4.195.752-5.213 1.195-1.018.443-1.804 1.096-2.357 1.96a5.024 5.024 0 0 0-.83 2.821c0 1.594.597 2.922 1.792 3.985 1.218 1.062 2.989 1.593 5.313 1.593 2.302 0 4.35-.498 6.143-1.494 1.792-1.018 3.109-2.401 3.95-4.15.642-1.35.964-3.343.964-5.977zm15.173 17.697v-48.676h5.977V174.1zm35.03 0v-48.676h35.195v5.744h-28.754v14.91h26.928v5.71h-26.928v16.568h29.883v5.744zm67.568 0v-5.18c-2.745 3.985-6.475 5.977-11.19 5.977-2.08 0-4.028-.398-5.843-1.195-1.794-.797-3.133-1.793-4.018-2.989-.864-1.217-1.472-2.7-1.826-4.449-.244-1.173-.365-3.032-.365-5.578v-21.848h5.976v19.557c0 3.122.122 5.225.366 6.31.376 1.57 1.172 2.81 2.39 3.717 1.217.886 2.722 1.328 4.516 1.328a9.934 9.934 0 0 0 5.047-1.36c1.57-.93 2.678-2.18 3.32-3.753.664-1.593.996-3.895.996-6.906v-18.894h5.977V174.1zm14.643 0v-35.262h5.379v5.346c1.372-2.501 2.633-4.15 3.785-4.947a6.71 6.71 0 0 1 3.85-1.196c2.015 0 4.063.642 6.144 1.926l-2.06 5.545c-1.46-.863-2.921-1.295-4.382-1.295a5.64 5.64 0 0 0-3.52 1.196c-1.04.775-1.782 1.86-2.224 3.253-.664 2.126-.996 4.45-.996 6.973V174.1zm20.486-17.63c0-6.53 1.815-11.367 5.445-14.51 3.033-2.612 6.73-3.919 11.09-3.919 4.848 0 8.81 1.594 11.887 4.782 3.076 3.166 4.615 7.548 4.615 13.148 0 4.538-.687 8.113-2.06 10.725-1.35 2.59-3.33 4.604-5.942 6.043-2.59 1.439-5.424 2.158-8.5 2.158-4.936 0-8.932-1.582-11.986-4.748-3.033-3.165-4.55-7.725-4.55-13.68zm6.143 0c0 4.516.985 7.902 2.955 10.16 1.97 2.236 4.449 3.353 7.437 3.353 2.966 0 5.434-1.129 7.404-3.387 1.97-2.258 2.955-5.7 2.955-10.326 0-4.36-.996-7.659-2.988-9.895-1.97-2.257-4.427-3.386-7.37-3.386-2.99 0-5.468 1.118-7.438 3.353-1.97 2.236-2.955 5.612-2.955 10.127zm33.9 31.144v-48.777h5.445v4.582c1.284-1.793 2.734-3.132 4.35-4.017 1.616-.908 3.575-1.362 5.877-1.362 3.01 0 5.666.775 7.969 2.325 2.302 1.55 4.039 3.741 5.212 6.574 1.173 2.812 1.76 5.9 1.76 9.264 0 3.608-.653 6.862-1.96 9.761-1.283 2.878-3.165 5.092-5.643 6.64-2.458 1.528-5.048 2.292-7.77 2.292-1.992 0-3.785-.42-5.38-1.262-1.57-.841-2.866-1.903-3.884-3.187v17.166zm5.412-30.946c0 4.538.918 7.892 2.756 10.06 1.837 2.17 4.062 3.255 6.674 3.255 2.656 0 4.924-1.118 6.806-3.354 1.904-2.257 2.856-5.743 2.856-10.459 0-4.493-.93-7.857-2.79-10.093-1.837-2.236-4.04-3.354-6.607-3.354-2.546 0-4.803 1.196-6.773 3.586-1.948 2.369-2.922 5.822-2.922 10.36zm56.545 6.077 6.176.763c-.974 3.608-2.778 6.408-5.412 8.4-2.635 1.993-6 2.99-10.094 2.99-5.158 0-9.253-1.583-12.285-4.749-3.011-3.187-4.516-7.647-4.516-13.38 0-5.933 1.527-10.537 4.582-13.814 3.054-3.276 7.017-4.914 11.887-4.914 4.714 0 8.566 1.605 11.555 4.815 2.988 3.21 4.482 7.725 4.482 13.547 0 .354-.011.885-.033 1.593h-26.297c.22 3.874 1.317 6.84 3.287 8.9 1.97 2.058 4.427 3.087 7.37 3.087 2.192 0 4.063-.575 5.613-1.727 1.549-1.15 2.777-2.987 3.685-5.51zm-19.623-9.663h19.69c-.267-2.966-1.02-5.19-2.258-6.673-1.904-2.302-4.373-3.454-7.405-3.454-2.745 0-5.058.919-6.94 2.756-1.86 1.838-2.888 4.295-3.087 7.371zM-16.53 174.1v-5.18c-2.745 3.985-6.475 5.977-11.19 5.977-2.08 0-4.028-.398-5.843-1.195-1.794-.797-3.133-1.793-4.018-2.989-.864-1.217-1.472-2.7-1.826-4.449-.244-1.173-.365-3.032-.365-5.578v-21.848h5.976v19.557c0 3.122.122 5.225.366 6.31.376 1.57 1.172 2.81 2.39 3.717 1.217.886 2.722 1.328 4.516 1.328a9.934 9.934 0 0 0 5.047-1.36c1.57-.93 2.678-2.18 3.32-3.753.664-1.593.996-3.895.996-6.906v-18.894h5.977V174.1zM-632.371 40.94h9.827v26.363c0 4.184.122 6.895.366 8.134.42 1.993 1.416 3.598 2.988 4.815 1.593 1.196 3.762 1.793 6.508 1.793 2.788 0 4.89-.564 6.308-1.694 1.416-1.15 2.269-2.556 2.557-4.216.288-1.66.432-4.416.432-8.268V40.94h9.828v25.567c0 5.844-.266 9.972-.797 12.384-.532 2.414-1.517 4.45-2.955 6.11-1.417 1.66-3.32 2.988-5.711 3.984-2.391.974-5.512 1.461-9.363 1.461-4.65 0-8.18-.531-10.592-1.594-2.391-1.084-4.284-2.479-5.678-4.183-1.395-1.726-2.314-3.53-2.756-5.412-.642-2.79-.963-6.906-.963-12.352zm49.273 48.675V40.94h9.562l19.922 32.506V40.94h9.13v48.676h-9.86l-19.623-31.742v31.742zm48.709 0V40.94h9.828v48.676zm17.199-24.039c0-4.958.74-9.12 2.224-12.484a23.045 23.045 0 0 1 4.516-6.674c1.926-1.97 4.029-3.43 6.309-4.383 3.032-1.284 6.53-1.926 10.492-1.926 7.172 0 12.905 2.225 17.2 6.674 4.316 4.45 6.474 10.636 6.474 18.56 0 7.859-2.137 14.013-6.41 18.461-4.271 4.428-9.982 6.641-17.131 6.641-7.24 0-12.994-2.202-17.266-6.607-4.272-4.427-6.408-10.514-6.408-18.262zm10.127-.332c0 5.512 1.272 9.695 3.818 12.55 2.546 2.834 5.777 4.25 9.695 4.25s7.128-1.405 9.63-4.216c2.523-2.833 3.785-7.072 3.785-12.717 0-5.578-1.23-9.74-3.686-12.484-2.435-2.744-5.678-4.117-9.73-4.117-4.05 0-7.315 1.395-9.793 4.183-2.48 2.767-3.72 6.95-3.72 12.55zm7.437-27.094 4.582-9.928h10.46l-9.132 9.928zm56.213 51.465V40.94h36.092v8.235h-26.264v10.79h24.438v8.202h-24.438v13.248h27.194v8.201zm45.29-48.676h9.827v26.364c0 4.184.122 6.895.366 8.134.42 1.993 1.416 3.598 2.988 4.815 1.593 1.196 3.762 1.793 6.508 1.793 2.788 0 4.89-.564 6.308-1.694 1.416-1.15 2.269-2.556 2.557-4.216.288-1.66.432-4.416.432-8.268V40.94h9.828v25.567c0 5.844-.266 9.972-.797 12.384-.532 2.414-1.517 4.45-2.955 6.11-1.417 1.66-3.32 2.988-5.711 3.984-2.391.974-5.512 1.461-9.363 1.461-4.65 0-8.18-.531-10.592-1.594-2.391-1.084-4.284-2.479-5.678-4.183-1.395-1.726-2.314-3.53-2.756-5.412-.642-2.79-.963-6.906-.963-12.352zm49.206 48.676V40.94h20.686c5.202 0 8.976.443 11.322 1.328 2.368.864 4.26 2.413 5.678 4.65 1.416 2.235 2.125 4.791 2.125 7.67 0 3.651-1.074 6.673-3.22 9.063-2.148 2.369-5.358 3.863-9.63 4.483 2.125 1.24 3.874 2.6 5.246 4.084 1.394 1.483 3.265 4.117 5.612 7.902l5.943 9.496h-11.754l-7.105-10.592c-2.524-3.785-4.251-6.164-5.18-7.138-.93-.996-1.915-1.672-2.955-2.026-1.04-.376-2.69-.564-4.947-.564h-1.993v20.32zm9.828-28.09h7.272c4.714 0 7.658-.199 8.832-.597 1.173-.398 2.092-1.085 2.756-2.06.664-.973.996-2.19.996-3.65 0-1.639-.443-2.956-1.328-3.953-.864-1.018-2.092-1.66-3.686-1.925-.797-.11-3.188-.166-7.172-.166h-7.67zm37.254 4.051c0-4.958.741-9.12 2.225-12.484a23.045 23.045 0 0 1 4.516-6.674c1.925-1.97 4.028-3.43 6.308-4.383 3.032-1.284 6.53-1.926 10.492-1.926 7.172 0 12.905 2.225 17.2 6.674 4.316 4.45 6.474 10.636 6.474 18.56 0 7.859-2.136 14.013-6.408 18.461-4.272 4.428-9.983 6.641-17.133 6.641-7.238 0-12.993-2.202-17.265-6.607-4.273-4.427-6.41-10.514-6.41-18.262zm10.127-.332c0 5.512 1.273 9.696 3.819 12.55 2.545 2.834 5.777 4.25 9.695 4.25s7.127-1.405 9.629-4.216c2.523-2.833 3.785-7.072 3.785-12.717 0-5.578-1.23-9.74-3.686-12.484-2.435-2.744-5.678-4.117-9.728-4.117-4.051 0-7.316 1.395-9.795 4.183-2.48 2.767-3.72 6.95-3.72 12.55zm44.758 24.371V40.94h15.772c5.976 0 9.871.244 11.687.73 2.789.73 5.124 2.325 7.006 4.782 1.88 2.435 2.822 5.59 2.822 9.463 0 2.988-.543 5.5-1.627 7.537-1.085 2.037-2.468 3.642-4.15 4.814-1.66 1.152-3.354 1.915-5.08 2.291-2.347.466-5.745.698-10.194.698h-6.408v18.361zm9.828-40.44v13.811h5.38c3.873 0 6.463-.254 7.769-.764 1.306-.508 2.324-1.305 3.054-2.39.753-1.084 1.13-2.346 1.13-3.785 0-1.771-.52-3.232-1.561-4.383-1.04-1.151-2.357-1.87-3.951-2.158-1.174-.221-3.531-.332-7.073-.332zm35.528 40.44V40.94h36.09v8.235h-26.262v10.79h24.437v8.202h-24.437v13.248h27.193v8.201zm89.25 0h-10.693l-4.25-11.057h-19.457l-4.017 11.057h-10.426l18.959-48.676h10.392zm-18.096-19.258-6.707-18.062-6.574 18.062zm-503.202 169.285v-34.36h4.547v30.305h16.922v4.055zm26.367-22.196-1.078-6.421v-5.743h4.805v5.743l-1.125 6.421zm9.915 22.196v-34.36h23.18v4.055h-18.634v10.64h16.125v4.055h-16.125v15.61zm27.539-11.04 4.289-.374q.304 2.578 1.406 4.242 1.125 1.64 3.469 2.672 2.343 1.008 5.273 1.008 2.602 0 4.594-.774 1.992-.773 2.953-2.11.984-1.359.984-2.952 0-1.618-.937-2.813-.938-1.219-3.094-2.039-1.383-.539-6.117-1.664-4.734-1.148-6.633-2.156-2.46-1.29-3.68-3.188-1.195-1.922-1.195-4.289 0-2.601 1.477-4.851 1.476-2.274 4.312-3.446 2.836-1.172 6.305-1.172 3.82 0 6.726 1.243 2.93 1.218 4.5 3.609 1.57 2.39 1.688 5.414l-4.36.328q-.351-3.258-2.39-4.922-2.016-1.664-5.977-1.664-4.125 0-6.023 1.524-1.875 1.5-1.875 3.632 0 1.852 1.336 3.047 1.312 1.196 6.844 2.461 5.554 1.242 7.617 2.18 3 1.383 4.43 3.516 1.43 2.109 1.43 4.875 0 2.742-1.571 5.18-1.57 2.413-4.524 3.773-2.93 1.336-6.609 1.336-4.664 0-7.828-1.36-3.14-1.36-4.945-4.078-1.782-2.742-1.875-6.187zm33.656 11.04v-34.36h24.844v4.055h-20.297v10.523h19.008v4.032h-19.008v11.695h21.093v4.055zm44.742-29.508v-4.852h4.219v4.852zm0 29.508v-24.89h4.219v24.89zm10.64 0v-24.89h3.798v3.538q2.742-4.101 7.921-4.101 2.25 0 4.125.82 1.899.797 2.836 2.11.938 1.312 1.313 3.116.234 1.172.234 4.102v15.305h-4.219v-15.14q0-2.579-.492-3.845-.492-1.289-1.758-2.039-1.242-.773-2.93-.773-2.695 0-4.663 1.71-1.946 1.712-1.946 6.493v13.594zm33.61 0-9.469-24.89h4.453l5.344 14.905q.867 2.414 1.594 5.016.562-1.969 1.57-4.734l5.531-15.188h4.336l-9.421 24.89zm34.125-8.016 4.36.54q-1.032 3.82-3.82 5.929-2.79 2.11-7.126 2.11-5.46 0-8.672-3.352-3.187-3.375-3.187-9.446 0-6.28 3.234-9.75 3.234-3.468 8.39-3.468 4.993 0 8.157 3.398 3.164 3.398 3.164 9.563 0 .375-.023 1.125h-18.563q.234 4.101 2.32 6.28 2.086 2.18 5.204 2.18 2.32 0 3.96-1.218 1.641-1.219 2.602-3.89zm-13.852-6.82H-413q-.281-3.14-1.594-4.711-2.015-2.438-5.226-2.438-2.907 0-4.899 1.946-1.969 1.945-2.18 5.203zm23.461 14.836v-24.89h3.797v3.773q1.453-2.649 2.672-3.493 1.242-.843 2.719-.843 2.133 0 4.336 1.359l-1.453 3.914q-1.547-.914-3.094-.914-1.383 0-2.484.844-1.102.82-1.57 2.297-.704 2.25-.704 4.921v13.032zm25.243-3.774.609 3.727q-1.781.375-3.188.375-2.296 0-3.562-.727-1.266-.726-1.781-1.898-.516-1.195-.516-4.992v-14.32h-3.094v-3.282h3.094v-6.164l4.195-2.531v8.695h4.243v3.281h-4.243v14.555q0 1.805.211 2.32.235.516.727.82.516.305 1.453.305.703 0 1.852-.164zm21.164-4.242 4.359.54q-1.031 3.82-3.82 5.929-2.79 2.11-7.125 2.11-5.461 0-8.672-3.352-3.188-3.375-3.188-9.446 0-6.28 3.235-9.75 3.234-3.468 8.39-3.468 4.993 0 8.157 3.398 3.164 3.398 3.164 9.563 0 .375-.024 1.125h-18.562q.234 4.101 2.32 6.28 2.086 2.18 5.203 2.18 2.32 0 3.961-1.218 1.64-1.219 2.602-3.89zm-13.852-6.82h13.899q-.282-3.14-1.594-4.711-2.016-2.438-5.227-2.438-2.906 0-4.898 1.946-1.969 1.945-2.18 5.203zm23.531-14.672v-4.852h4.22v4.852zm0 29.508v-24.89h4.22v24.89zm7.828 0 9.094-12.938-8.414-11.953h5.274l3.82 5.836q1.078 1.664 1.734 2.79 1.032-1.548 1.899-2.743l4.195-5.883h5.04l-8.602 11.719 9.257 13.172h-5.18l-5.109-7.735-1.36-2.086-6.538 9.82zm57.188-8.016 4.36.54q-1.032 3.82-3.821 5.929-2.789 2.11-7.125 2.11-5.46 0-8.672-3.352-3.187-3.375-3.187-9.446 0-6.28 3.234-9.75 3.234-3.468 8.39-3.468 4.993 0 8.157 3.398 3.164 3.398 3.164 9.563 0 .375-.023 1.125h-18.563q.234 4.101 2.32 6.28 2.086 2.18 5.203 2.18 2.32 0 3.961-1.218 1.641-1.219 2.602-3.89zm-13.852-6.82h13.899q-.281-3.14-1.594-4.711-2.016-2.438-5.226-2.438-2.907 0-4.899 1.946-1.969 1.945-2.18 5.203zm23.508 14.836v-24.89h3.797v3.538q2.742-4.101 7.922-4.101 2.25 0 4.125.82 1.898.797 2.836 2.11.937 1.312 1.312 3.116.235 1.172.235 4.102v15.305h-4.219v-15.14q0-2.579-.492-3.845-.492-1.289-1.758-2.039-1.242-.773-2.93-.773-2.695 0-4.664 1.71-1.945 1.712-1.945 6.493v13.594zm57.07-8.016 4.36.54q-1.031 3.82-3.82 5.929-2.79 2.11-7.125 2.11-5.461 0-8.672-3.352-3.188-3.375-3.188-9.446 0-6.28 3.235-9.75 3.234-3.468 8.39-3.468 4.992 0 8.156 3.398 3.165 3.398 3.165 9.563 0 .375-.024 1.125h-18.562q.234 4.101 2.32 6.28 2.086 2.18 5.203 2.18 2.32 0 3.961-1.218 1.64-1.219 2.602-3.89zm-13.851-6.82h13.898q-.28-3.14-1.593-4.711-2.016-2.438-5.227-2.438-2.906 0-4.898 1.946-1.97 1.945-2.18 5.203zm23.414 14.836v-34.36h4.219v34.36zm33.305-3.774.61 3.727q-1.782.375-3.188.375-2.297 0-3.563-.727-1.266-.726-1.781-1.898-.516-1.195-.516-4.992v-14.32h-3.094v-3.282h3.094v-6.164l4.196-2.531v8.695h4.242v3.281h-4.242v14.555q0 1.805.21 2.32.235.516.727.82.516.305 1.453.305.703 0 1.852-.164zm21.164-4.242 4.36.54q-1.032 3.82-3.821 5.929-2.79 2.11-7.125 2.11-5.461 0-8.672-3.352-3.188-3.375-3.188-9.446 0-6.28 3.235-9.75 3.234-3.468 8.39-3.468 4.993 0 8.157 3.398 3.164 3.398 3.164 9.563 0 .375-.024 1.125h-18.562q.234 4.101 2.32 6.28 2.086 2.18 5.203 2.18 2.32 0 3.961-1.218 1.64-1.219 2.602-3.89zm-13.852-6.82h13.899q-.282-3.14-1.594-4.711-2.016-2.438-5.227-2.438-2.906 0-4.898 1.946-1.969 1.945-2.18 5.203zm39.82 14.836v-3.657q-2.906 4.22-7.898 4.22-2.203 0-4.125-.845-1.898-.843-2.836-2.109-.914-1.289-1.289-3.14-.258-1.243-.258-3.938v-15.422h4.219v13.805q0 3.304.258 4.453.398 1.664 1.687 2.625 1.29.937 3.188.937 1.898 0 3.562-.96 1.664-.985 2.344-2.649.703-1.687.703-4.875v-13.336h4.219v24.89zm24.727 0v-21.61h-3.726v-3.28h3.726v-2.65q0-2.507.445-3.726.61-1.64 2.133-2.648 1.547-1.032 4.313-1.032 1.781 0 3.937.422l-.633 3.68q-1.312-.234-2.484-.234-1.922 0-2.719.82-.797.82-.797 3.07v2.297h4.852v3.281h-4.852v21.61zm28.64 0v-3.657q-2.906 4.22-7.898 4.22-2.203 0-4.125-.845-1.898-.843-2.836-2.109-.914-1.289-1.289-3.14-.258-1.243-.258-3.938v-15.422h4.22v13.805q0 3.304.257 4.453.398 1.664 1.688 2.625 1.289.937 3.187.937t3.563-.96q1.664-.985 2.343-2.649.703-1.687.703-4.875v-13.336h4.22v24.89zm19.594-3.774.61 3.727q-1.781.375-3.188.375-2.297 0-3.562-.727-1.266-.726-1.781-1.898-.516-1.195-.516-4.992v-14.32h-3.094v-3.282h3.094v-6.164l4.195-2.531v8.695h4.242v3.281h-4.242v14.555q0 1.805.211 2.32.235.516.727.82.515.305 1.453.305.703 0 1.851-.164zm20.438 3.774v-3.657q-2.906 4.22-7.899 4.22-2.203 0-4.125-.845-1.898-.843-2.835-2.109-.915-1.289-1.29-3.14-.257-1.243-.257-3.938v-15.422h4.218v13.805q0 3.304.258 4.453.399 1.664 1.688 2.625 1.289.937 3.187.937 1.899 0 3.563-.96 1.664-.985 2.343-2.649.704-1.687.704-4.875v-13.336h4.218v24.89zm10.336 0v-24.89h3.797v3.773q1.453-2.649 2.672-3.493 1.242-.843 2.718-.843 2.133 0 4.336 1.359l-1.453 3.914q-1.547-.914-3.094-.914-1.382 0-2.484.844-1.102.82-1.57 2.297-.703 2.25-.703 4.921v13.032z" style="fill:var(--md-typeset-color)"/>transform="translate(-1102.015 -54.976)"/&gt;</g></svg>
